<?xml version="1.0" standalone="no"?>
<!DOCTYPE svg PUBLIC "-//W3C//DTD SVG 1.1//EN" "http://www.w3.org/Graphics/SVG/1.1/DTD/svg11.dtd" >
<!--
2013-9-30: Created.
-->
<svg>
<metadata>
Created by iconfont
</metadata>
<defs>

<font id="iconfont" horiz-adv-x="1024" >
  <font-face
    font-family="iconfont"
    font-weight="500"
    font-stretch="normal"
    units-per-em="1024"
    ascent="896"
    descent="-128"
  />
    <missing-glyph />
    
    <glyph glyph-name="kefuyouxian" unicode="&#58887;" d="M526.671258-10.945024 366.50496 258.472038c0 0-173.408358-67.277312-233.568973-107.761357-60.166758-40.484045-86.761472-163.346227-86.761472-163.346227l962.660513 0c0 0-17.634304 115.704218-88.419328 163.346227-60.171878 40.484045-233.583309 107.761357-233.583309 107.761357L526.671258-10.945024zM526.671258 204.587827l-53.393203-53.876019 26.699162-53.885235-80.085197-107.77047 213.554334 0-80.082125 107.77047 26.69097 53.885235L526.671258 204.587827zM532.399923 822.285107c235.125453 0 235.535872-179.932058 235.535872-281.104282 0-101.173248-94.210458-289.163776-235.535872-289.38281C391.080653 251.567821 296.863027 440.007578 296.863027 541.180826 296.863027 642.35305 297.277542 822.285107 532.399923 822.285107z"  horiz-adv-x="1024" />

    
    <glyph glyph-name="tushu" unicode="&#58888;" d="M947.701961 272.564706l-694.713725 0q-11.043137 0-23.090196-6.023529t-22.588235-18.070588-17.066667-28.611765-6.52549-37.647059 5.521569-39.152941 14.556863-32.12549 22.086275-22.086275 28.109804-8.031373l693.709804 0q-12.047059 12.047059-21.082353 27.105882-8.031373 13.05098-14.556863 31.121569t-6.52549 41.160784q0 26.101961 6.52549 43.168627t14.556863 28.109804q9.035294 12.047059 21.082353 21.082353zM947.701961-1.505882q0-17.066667-22.086275-17.066667l-733.866667 0q-34.133333 0-57.223529 14.054902t-37.647059 38.65098-20.580392 58.729412-6.023529 73.286275l0 582.27451q0 77.301961 41.160784 111.937255t117.458824 34.635294l34.133333 0 68.266667 0 93.364706 0q51.2 0 104.909804 0.501961t104.909804 0.501961l94.368627 0 70.27451 0 35.137255 0q28.109804 0 49.192157-11.545098t35.137255-32.12549 21.584314-48.690196 7.529412-60.235294l0-406.588235q-191.74902 0-345.34902 1.003922l-128.501961 0q-64.25098 0-114.94902 0.501961t-83.827451 0.501961l-37.145098 0q-21.082353 0-41.160784-12.54902t-36.141176-34.133333-26.101961-50.196078-10.039216-59.733333q0-38.14902 10.541176-68.768627t27.607843-51.701961 37.647059-32.627451 40.658824-11.545098l685.678431 0q8.031373 0 14.556863-4.517647t6.52549-14.556863zM515.011765 896l0-388.517647 77.301961 108.423529 76.298039-108.423529 0 388.517647-153.6 0z"  horiz-adv-x="1024" />

    
    <glyph glyph-name="shouji" unicode="&#58889;" d="M820.409449 98.771654q0-25.19685-10.07874-46.866142t-27.716535-38.299213-41.322835-26.204724-50.897638-9.574803l-357.795276 0q-27.212598 0-50.897638 9.574803t-41.322835 26.204724-27.716535 38.299213-10.07874 46.866142l0 675.275591q0 25.19685 10.07874 47.370079t27.716535 38.80315 41.322835 26.204724 50.897638 9.574803l357.795276 0q27.212598 0 50.897638-9.574803t41.322835-26.204724 27.716535-38.80315 10.07874-47.370079l0-675.275591zM738.771654 725.669291l-455.559055 0 0-577.511811 455.559055 0 0 577.511811zM510.992126 119.937008q-21.165354 0-36.787402-15.11811t-15.622047-37.291339q0-21.165354 15.622047-36.787402t36.787402-15.622047q22.173228 0 37.291339 15.622047t15.11811 36.787402q0 22.173228-15.11811 37.291339t-37.291339 15.11811zM591.622047 811.338583q0 8.062992-5.03937 12.598425t-11.086614 4.535433l-128 0q-5.03937 0-10.582677-4.535433t-5.543307-12.598425 5.03937-12.598425 11.086614-4.535433l128 0q6.047244 0 11.086614 4.535433t5.03937 12.598425z"  horiz-adv-x="1024" />

    
    <glyph glyph-name="dangan" unicode="&#58903;" d="M784.945799 502.501571 239.054201 502.501571C228.293106 502.501571 219.578959 493.495003 219.578959 482.441487s8.714147-20.001599 19.475241-20.001599l545.891599 0C795.706894 462.439888 804.421041 471.446456 804.421041 482.441487S795.706894 502.501571 784.945799 502.501571zM804.421041 603.971672 219.578959 603.971672c-10.819579 0-19.533726-8.948084-19.533726-20.001599C200.045234 572.916557 208.759381 564.026958 219.578959 564.026958l584.842081 0c10.819579 0 19.533726 8.8896 19.533726 20.001599C823.954766 595.023588 815.240619 603.971672 804.421041 603.971672zM969.580444 395.300017 892.673711 682.7499c-0.175453 0.70181-0.350905 1.286653-0.643326 1.988463-12.106231 31.639957-29.768462 52.694272-76.731281 52.694272L207.414244 735.736593c-38.950483 0-61.817808-15.732252-76.555828-52.40185C130.565995 682.515963 130.273574 681.697184 130.098121 680.93689L53.834714 387.404649C47.927809 381.614712 44.126335 374.304186 44.126335 365.823976l0-459.978297c0-21.990062 25.674567-43.278314 47.079788-43.278314l857.846365 0c21.40522 0 30.821178 21.288252 30.821178 43.278314L979.873665 365.823976C979.873665 378.632018 976.540065 388.925238 969.580444 395.300017zM745.936832 70.537209 278.063168 70.537209l0 116.968416 467.873665 0L745.936832 70.537209zM687.452624 362.95825c0 0-41.348335-0.526358-61.759324-0.526358L408.073562 362.431892C387.662574 362.431892 336.547376 362.95825 336.547376 362.95825L102.610543 362.95825l64.800503 306.340282c7.953852 19.475241 15.498315 26.376378 40.061683 26.376378l607.943343 1.754526c27.019704 0 32.458736-6.901137 40.003198-26.317894L921.389457 362.95825 687.452624 362.95825z"  horiz-adv-x="1024" />

    
    <glyph glyph-name="fanhui1" unicode="&#58890;" d="M729.972918-7.68375l-393.880789 391.691937 393.880789 391.68068c10.270924 10.214642 11.294231 25.719778 2.334161 34.666544-9.002025 8.925277-24.607444 7.902994-34.877345-2.322905L291.499515 404.382213c-5.846148-5.824659-8.601912-13.382798-8.270361-20.463054-0.267083-7.03523 2.468215-14.525831 8.314363-20.306488l405.885194-403.662573c10.269901-10.180873 25.919323-11.248182 34.877345-2.312672C741.267149-33.423995 740.243843-17.908626 729.972918-7.68375z"  horiz-adv-x="1024" />

    
    <glyph glyph-name="fanhui2" unicode="&#58891;" d="M289.301454-42.361551c8.958022-8.93551 24.607444-7.868201 34.877345 2.312672l405.886217 403.662573c5.846148 5.780657 8.581446 13.271258 8.314363 20.306488 0.331551 7.080256-2.423189 14.637372-8.270361 20.463054L324.178799 808.033529c-10.269901 10.225899-25.875321 11.248182-34.877345 2.322905-8.960069-8.946766-7.936763-24.451902 2.334161-34.666544l393.880789-391.68068L291.635615-7.68375C281.364691-17.908626 280.341385-33.423995 289.301454-42.361551z"  horiz-adv-x="1024" />

    
    <glyph glyph-name="fanhui3" unicode="&#58892;" d="M937.165818 162.497187c8.93551 8.958022 7.868201 24.607444-2.312672 34.877345L531.191596 603.259726c-5.779633 5.846148-13.271258 8.581446-20.306488 8.314363-7.081279 0.331551-14.638395-2.423189-20.463054-8.270361L86.770737 197.374532c-10.225899-10.269901-11.248182-25.875321-2.322905-34.877345 8.946766-8.960069 24.451902-7.936763 34.666544 2.334161l391.68068 393.880789 391.691937-393.880789C912.712893 154.560424 928.228261 153.537118 937.165818 162.497187z"  horiz-adv-x="1024" />

    
    <glyph glyph-name="fanhui4" unicode="&#58893;" d="M902.488017 603.168652 510.795057 209.28684l-391.68068 393.880789c-10.214642 10.270924-25.719778 11.294231-34.666544 2.334161-8.925277-9.002025-7.902994-24.607444 2.322905-34.877345l403.651316-405.930219c5.824659-5.847172 13.381775-8.601912 20.463054-8.270361 7.03523-0.267083 14.525831 2.468215 20.306488 8.314363l403.662573 405.886217c10.180873 10.269901 11.248182 25.919323 2.312672 34.877345C928.228261 614.462882 912.712893 613.439576 902.488017 603.168652z"  horiz-adv-x="1024" />

    
    <glyph glyph-name="paishexuanzhong" unicode="&#58894;" d="M506.51559 490.809631c-73.123414 0-132.432195-58.953693-132.432195-131.673925s59.308781-131.675972 132.432195-131.675972c73.14695 0 132.455731 58.95574 132.455731 131.675972S579.663564 490.809631 506.51559 490.809631zM934.574806 596.802664c0 25.916253-21.170159 46.944172-47.254234 46.944172L721.921545 643.746836l-23.638373 46.993291c0 0-21.147646 46.992267-47.231721 46.992267L367.48614 737.732393c-26.083052 0-47.229674-46.992267-47.229674-46.992267l-23.638373-46.993291L131.217019 643.746836c-26.082028 0-47.25321-21.027919-47.25321-46.944172l0-516.868891c0-25.963325 21.171182-46.993291 47.25321-46.993291l756.103554 0c26.083052 0 47.254234 21.029966 47.254234 46.993291l0 65.789379-0.403183-10.016121 0.403183 170.120562L934.574806 596.802664zM506.51559 183.556828c-97.496521 0-176.554088 78.651314-176.554088 175.578878 0 96.973612 79.057567 175.579901 176.554088 175.579901 97.522104 0 176.576601-78.606289 176.576601-175.579901C683.092191 262.208143 604.037694 183.556828 506.51559 183.556828zM786.096147 498.260324c-20.148899 0-36.455283 16.32992-36.455283 36.455283 0 20.125363 16.306384 36.455283 36.455283 36.455283 20.126386 0 36.455283-16.32992 36.455283-36.455283C822.55143 514.590244 806.222533 498.260324 786.096147 498.260324z"  horiz-adv-x="1024" />

    
    <glyph glyph-name="chuanshu" unicode="&#58895;" d="M384 736h-192v-576h-128l224-320 224 320h-128v576zM736 736l-224-320h128v-576h192v576h128l-224 320z"  horiz-adv-x="1024" />

    
    <glyph glyph-name="31shoucangxuanzhong" unicode="&#58896;" d="M946.44567 488.820324c-3.706415 11.056823-13.268188 19.154245-24.823362 20.929682l-263.117606 40.614L540.930913 802.08198c-5.108345 10.93198-16.071024 17.939581-28.155247 17.971303-0.030699 0-0.062422 0-0.062422 0-12.021801 0-22.985504-6.945179-28.155247-17.84646L365.79001 550.752862l-263.917832-39.507806c-11.399631-1.961678-20.774139-10.060123-24.355711-21.054525-3.613294-10.963703-0.778736-23.047926 7.257288-31.332612l191.202717-196.684568-45.6282-277.132808c-1.930979-11.741415 3.0208-23.608697 12.769838-30.491455 9.717316-6.882757 22.549575-7.630794 32.983205-1.868557l235.366565 129.47177 234.868215-130.282229c4.703115-2.616594 9.904581-3.924379 15.106046-3.924379 6.291287 0 12.551874 1.868557 17.877159 5.699816 9.748015 6.852058 14.763239 18.687618 12.862959 30.460756L747.488339 261.364939l191.669344 195.84341C947.286828 465.523735 950.121386 477.7635 946.44567 488.820324z"  horiz-adv-x="1024" />

    
    <glyph glyph-name="31shoucang" unicode="&#58897;" d="M946.44567 488.820324c-3.706415 11.056823-13.268188 19.154245-24.823362 20.929682l-263.117606 40.614L540.930913 802.08198c-5.108345 10.93198-16.071024 17.939581-28.155247 17.971303-0.030699 0-0.062422 0-0.062422 0-12.021801 0-22.985504-6.945179-28.155247-17.84646L365.79001 550.752862l-263.917832-39.507806c-11.399631-1.961678-20.774139-10.060123-24.355711-21.054525-3.613294-10.963703-0.778736-23.047926 7.257288-31.332612l191.202717-196.684568-45.6282-277.132808c-1.930979-11.741415 3.0208-23.608697 12.769838-30.491455 9.717316-6.882757 22.549575-7.630794 32.983205-1.868557l235.366565 129.47177 234.868215-130.282229c4.703115-2.616594 9.904581-3.924379 15.106046-3.924379 6.291287 0 12.551874 1.868557 17.877159 5.699816 9.748015 6.852058 14.763239 18.687618 12.862959 30.460756L747.488339 261.364939l191.669344 195.84341C947.286828 465.523735 950.121386 477.7635 946.44567 488.820324zM691.986257 293.662529c-6.882757-7.039323-10.060123-16.974603-8.471952-26.722618l37.000706-229.480508L526.666024 144.974092c-9.343809 5.232165-20.74344 5.232165-30.117948 0.062422L302.262138 38.143994l37.779442 229.387387c1.588171 9.717316-1.52575 19.652596-8.40953 26.754341L170.703847 459.823919l220.156142 31.686676c2.191922 0.378623 4.288676 0.980327 6.274914 1.771343 7.674796 2.63092 14.32117 8.233522 18.061354 16.156982l97.392144 206.183919 96.550986-206.712969c4.422729-9.406231 13.205766-16.008602 23.483854-17.596773l219.638349-33.886785L691.986257 293.662529z"  horiz-adv-x="1024" />

    
    <glyph glyph-name="31dianhua" unicode="&#58898;" d="M908.04764 204.533582l-12.631692 16.232706-0.464581 0.493234c-4.123924 4.326539-15.82543 16.231683-34.96228 32.668027-22.883173 19.688411-63.711044 48.726771-66.932412 50.876738l-57.118905 34.496675c-10.483772 5.256724-21.605064 6.358825-29.096688 6.358825-8.131191 0-16.145725-1.306762-23.144116-3.773953-24.710798-8.624425-47.767933-47.565319-54.185087-59.325154-2.963495-5.430686-6.214539-11.935843-9.003048-17.656125l-0.899486-1.801019c-3.484358-6.940063-7.377014-14.721283-11.499915-22.300912-4.066619-7.317663-12.775978-14.751982-21.605064-14.751982-2.728134 0-5.28333 0.668219-7.750521 2.061962-38.274722 21.982664-83.60207 50.438763-129.831974 94.985328-52.1528 50.294476-83.108836 90.047876-100.241029 128.842437-1.044796 2.657526-0.929162 14.693654 5.865591 18.048051 9.379625 4.675486 17.016559 7.738241 23.752983 10.468422l1.568728 0.682545c9.698896 3.934612 18.903535 7.652284 29.386284 14.039761 4.529153 2.918469 6.940063 4.253884 9.002025 5.41636l1.044796 0.623193c3.774977 2.047636 7.317663 4.00829 18.178011 11.32493 0.465604 0.334621 2.439562 1.960655 4.530177 3.746324l6.968715 6.302543c18.207687 17.552771 24.189935 43.38409 15.216563 65.742307l-3.13541 9.045003c-0.058328 0.233314-11.615549 27.122731-30.142507 59.078537-9.002025 15.46318-22.650883 36.023448-34.731012 52.342112-32.638351 44.008306-62.838164 58.077743-62.983473 58.134025-0.319272 0.174985-8.159844 4.341888-12.979616 6.53381-19.688411 8.42181-41.933041 8.117888-61.794391-0.594541-29.676903-11.150968-47.88459-26.366508-67.252707-42.541909l-4.240581-3.628644c-57.496505-48.001247-88.639806-110.62247-81.293491-163.515121 11.021008-79.987752 103.420441-243.256256 223.349881-358.830505 119.871111-115.485221 288.670585-204.25601 371.112226-214.739782 6.243191-0.813528 12.661368-1.219781 19.078521-1.219781 59.557444 0 106.020662 36.32737 139.791813 67.980277 16.84055 15.796778 39.084157 41.84606 50.930973 67.630307C920.361083 146.658454 925.355841 179.646775 908.04764 204.533582M293.157271 427.535539c20.559245-46.505173 55.638181-92.212168 113.657596-148.08264 50.699706-48.929386 100.095719-80.030731 141.765771-103.987353 11.963473-6.822382 24.769127-10.278087 37.953404-10.278087 33.917484 0 61.909002 23.229051 74.687026 46.257533 4.792143 8.741082 9.029654 17.248849 13.675464 26.598798l1.917676 3.947915c2.148943 4.211928 4.093225 8.132214 5.865591 11.472286 9.610892 17.33583 18.759249 27.818579 22.737864 31.419594 1.104147 0.057305 2.670829 0.027629 3.571339-0.060375l50.730405-30.664394 0.841158-0.579191c12.310374-8.798387 42.773176-30.897707 59.849086-45.620014 14.895245-12.777001 24.50716-22.273283 27.64257-25.351388 0.553609-0.578168 0.901533-0.956791 1.251503-1.188058l9.289574-11.907191c0.668219-2.496867 0-11.847839-3.773953-20.123316-8.217149-17.831111-25.206078-37.401842-37.285185-48.727795-38.736233-36.239366-67.921949-51.658544-97.656157-51.658544-3.920286 0-7.986905 0.261966-12.081153 0.813528-63.014172 7.984858-221.591841 87.291089-336.758814 198.246133C256.249687 358.698754 174.100712 511.005602 165.73723 571.477882c-4.41352 31.885198 19.165502 74.512041 60.051701 108.662839l4.384867 3.615341c17.771759 14.94027 29.532617 24.798802 51.049676 32.929993 3.716648 1.567705 6.706749 2.365884 9.204639 2.365884 1.771343 0 3.659343-0.376577 5.285377-1.060145 2.148943-1.016143 5.749958-2.88777 7.956206-4.078899l1.916653-0.973164c0.203638-0.102331 19.572778-10.235109 41.815361-40.260959 11.092639-14.868639 23.231097-33.190937 31.012318-46.607504 8.537444-14.810311 17.046235-31.187303 25.263383-48.697095 0.320295-0.654916 0.581238-1.220804 0.813528-1.671059l2.671852-8.02886c0.203638-0.478907 0.260943-0.740874 0.319272-0.740874-0.116657-0.144286-0.435928-0.477884-0.98749-1.016143l-1.771343-1.755993c-0.754177-0.712221-1.567705-1.481747-2.032286-1.989307-7.695263-5.081739-10.338463-6.532787-13.06762-8.116865-2.671852-1.452071-5.92392-3.238764-12.370749-7.316639-5.982248-3.659343-11.993149-6.098905-20.529569-9.540284-8.450463-3.396353-17.683754-7.202029-29.068036-12.81998C286.769794 504.16787 281.309432 454.264297 293.157271 427.535539"  horiz-adv-x="1024" />

    
    <glyph glyph-name="baohu" unicode="&#58923;" d="M910.562571 882.200953 113.442263 882.200953c-55.028339 0-99.642623-44.614285-99.642623-99.642623l0-797.120308c0-55.02469 44.614285-99.637758 99.642623-99.637758l797.120308 0c55.02469 0 99.637758 44.613068 99.637758 99.637758L1010.200329 782.558329C1010.200329 837.586668 965.58726 882.200953 910.562571 882.200953zM784.695068 303.896195c-0.152039-83.137284-202.088843-219.293561-272.698124-235.196826C440.58368 84.601418 239.157727 220.757695 239.303684 303.896195L239.303684 644.762465l273.003418 54.538165L743.081422 653.094195l1.649318 0 0-0.332053 39.965544-7.999677L784.696284 303.896195zM512.263316 653.094195l-232.994087-46.549435 0-222.926682 0.260291 0 27.19428 0 205.273145 0 0-268.719571c60.264557 13.580111 232.608517 129.784024 232.733797 200.730224l0 67.989348L512.263316 383.618078 512.263316 653.094195z"  horiz-adv-x="1024" />

    
    <glyph glyph-name="bangzhuzhongxin" unicode="&#59279;" d="M891.033093 797.607929 649.86931 797.607929c-56.248614 0-106.30472-27.178229-137.783303-68.977658-31.478582 41.799429-81.534688 68.977658-137.783303 68.977658L132.966907 797.607929c-38.015118 0-68.977658-30.96254-68.977658-68.977658l0-637.484294c0-38.015118 30.96254-68.977658 68.977658-68.977658l253.376785 0c33.88678-33.026709 78.782463-51.604233 125.742315-51.604233s91.855535 18.577524 125.742315 51.604233L891.033093 22.168318c38.015118 0 68.977658 30.96254 68.977658 68.977658L960.010751 728.63027C960.010751 766.645389 929.048211 797.607929 891.033093 797.607929zM891.033093 91.145977 622.863094 91.145977c-9.976818 0-19.609609-4.300353-26.146145-12.040988-21.501764-25.11406-52.464304-39.563245-84.630942-39.563245-32.166639 0-63.129179 14.449185-84.630942 39.563245-6.536536 7.740635-16.169326 12.040988-26.146145 12.040988l-268.342012 0L132.966907 728.63027l241.163783 0c56.936671 0 103.38048-46.44381 103.38048-103.38048l0-292.94003c0-19.093566 15.48127-34.402822 34.402822-34.402822 19.093566 0 34.402822 15.48127 34.402822 34.402822L546.316815 625.24979c0 56.936671 46.44381 103.38048 103.38048 103.38048L891.033093 728.63027 891.033093 91.145977z"  horiz-adv-x="1024" />

    
    <glyph glyph-name="baohu1" unicode="&#58927;" d="M510.577778 896c-12.8 0-25.6-4.266667-36.977778-11.377778C470.755556 883.2 392.533333 800.711111 315.733333 782.222222c-49.777778-12.8-105.244444-14.222222-132.266667-14.222222-17.066667 0-27.022222 0-28.444444 0-1.422222 0-2.844444 0-4.266667 0-17.066667 0-32.711111-5.688889-45.511111-17.066667C92.444444 739.555556 85.333333 722.488889 85.333333 705.422222l0-160.711111c0-593.066667 396.8-668.444444 413.866667-671.288889 4.266667 0 7.111111-1.422222 11.377778-1.422222 4.266667 0 7.111111 0 11.377778 1.422222C539.022222-123.733333 938.666667-48.355556 938.666667 544.711111L938.666667 705.422222c0 17.066667-7.111111 34.133333-21.333333 46.933333-12.8 11.377778-28.444444 17.066667-44.088889 17.066667-1.422222 0-2.844444 0-4.266667 0-1.422222 0-11.377778 0-28.444444 0-27.022222 0-81.066667 1.422222-130.844444 14.222222C644.266667 797.866667 568.888889 870.4 547.555556 884.622222 536.177778 891.733333 523.377778 896 510.577778 896L510.577778 896zM642.844444 540.444444c-9.955556-2.844444-18.488889 2.844444-21.333333 12.8l-7.111111 29.866667C597.333333 640 544.711111 674.133333 483.555556 658.488889c-61.155556-15.644444-88.177778-72.533333-72.533333-129.422222l11.377778-52.622222c2.844444-8.533333-2.844444-18.488889-12.8-21.333333-9.955556-2.844444-18.488889 2.844444-21.333333 12.8l-11.377778 52.622222c-19.911111 75.377778 17.066667 150.755556 98.133333 172.088889 79.644444 21.333333 152.177778-24.177778 173.511111-100.977778l7.111111-29.866667C657.066667 553.244444 651.377778 543.288889 642.844444 540.444444zM669.866667 142.222222 354.133333 142.222222c-38.4 0-69.688889 31.288889-69.688889 69.688889L284.444444 419.555556c0 38.4 31.288889 69.688889 69.688889 69.688889l315.733333 0c38.4 0 69.688889-31.288889 69.688889-69.688889l0-207.644444C739.555556 173.511111 708.266667 142.222222 669.866667 142.222222zM354.133333 453.688889c-19.911111 0-35.555556-15.644444-35.555556-34.133333l0-207.644444c0-18.488889 15.644444-34.133333 35.555556-34.133333l315.733333 0c19.911111 0 35.555556 15.644444 35.555556 34.133333L705.422222 419.555556c0 18.488889-15.644444 34.133333-35.555556 34.133333L354.133333 453.688889zM512 384c19.911111 0 35.555556-15.644444 35.555556-34.133333 0-18.488889-15.644444-34.133333-35.555556-34.133333-19.911111 0-35.555556 15.644444-35.555556 34.133333C476.444444 368.355556 492.088889 384 512 384zM512 349.866667c9.955556 0 17.066667-7.111111 17.066667-17.066667l0-69.688889c0-9.955556-8.533333-17.066667-17.066667-17.066667-9.955556 0-17.066667 7.111111-17.066667 17.066667l0 69.688889C494.933333 341.333333 502.044444 349.866667 512 349.866667z"  horiz-adv-x="1024" />

    
    <glyph glyph-name="quxiaozhiding" unicode="&#58935;" d="M780.904403 738.559225 274.136567 738.559225c-46.642297 0-84.461647-37.812187-84.461647-84.464717l0-506.767835c0-46.642297 37.818327-84.457554 84.461647-84.457554l506.767835 0c46.645366 0 84.461647 37.815257 84.461647 84.457554L865.36605 654.094508C865.365027 700.747038 827.549769 738.559225 780.904403 738.559225zM807.039643 191.070966c0-38.5899-31.286564-69.877487-69.879534-69.877487L317.880861 121.193479c-38.5899 0-69.879534 31.286564-69.879534 69.877487l0 419.279249c0 38.598086 31.289634 69.882604 69.879534 69.882604l419.279249 0c38.59297 0 69.879534-31.284517 69.879534-69.882604L807.039643 191.070966zM470.855928 621.092883 756.026806 621.092883 756.026806 563.778526 632.778784 563.778526 624.391766 519.043672 742.977605 519.043672 742.977605 306.098769 680.537508 306.098769 680.537508 463.128175 536.557302 463.128175 536.557302 302.838515 474.117205 302.838515 474.117205 519.043672 554.263569 519.043672 562.650587 563.778526 470.852858 563.778526 470.852858 621.092883ZM422.396239 264.628262c0-18.950607-3.302209-33.936927-9.901511-44.966121-6.605442-11.027148-15.57472-17.938558-26.91193-20.7373-11.340279-2.794649-36.809347-4.192485-76.416414-4.192485-2.176572 18.637476-5.747911 38.8314-10.720156 60.576657 14.290471-1.555425 28.266787-2.332115 41.940205-2.332115 12.423961 0 18.637476 6.831592 18.637476 20.503986l0 278.646278-59.643402 0 0 63.837934L463.865723 615.965096l0-63.837934-41.470507 0 0-287.4989L422.396239 264.628262zM724.340129 178.889529c-31.067576 25.786293-69.975724 55.376215-116.725468 88.766696-20.967544-34.945907-64.536852-65.153906-130.702807-90.629113-9.629311 18.330484-22.056342 38.521339-37.275975 60.57461 33.549094 9.162684 61.466933 21.12104 83.756589 35.881209 22.286586 14.753005 37.045731 34.981722 44.268226 60.690244 7.219425 25.705452 10.832719 59.063187 10.832719 100.06809l61.508889 0c0-45.51359-3.65218-83.331917-10.949376-113.462145 43.799552-27.649733 88.763626-58.170864 134.895293-91.564415L724.340129 178.889529 724.340129 178.889529zM730.479967 178.889529"  horiz-adv-x="1024" />

    
    <glyph glyph-name="bangongwangjiankong" unicode="&#59018;" d="M755.426125 5.548622 271.560906 5.548622c-19.035542 0-34.56012-34.56319-34.56012-34.56319l0-34.561144 552.987506 0 0 34.561144C789.988292-9.979026 774.46269 5.548622 755.426125 5.548622zM859.112626 800.46925 167.877475 800.46925c-57.242725 0-103.685477-46.459125-103.685477-103.686501l0-483.864196c0-57.241702 46.442752-103.685477 103.685477-103.685477l241.932098 0 0-34.56012c0-19.053961 15.525602-34.56319 34.561144-34.56319l138.247644 0c19.035542 0 34.56319 17.820877 34.56319 34.56319l0 34.56012 241.931075 0c57.242725 0 103.685477 46.444798 103.685477 103.685477L962.798103 696.782749C962.798103 754.009102 916.355351 800.46925 859.112626 800.46925zM167.877475 247.479697c-19.036565 0-34.561144 15.509229-34.561144 34.562167L133.316332 696.782749c0 19.037589 15.526625 34.56319 34.561144 34.56319l691.235151 0c19.036565 0 34.564213-15.525602 34.564213-34.56319L893.676839 282.04391c0-19.053961-15.526625-34.56319-34.564213-34.56319L167.877475 247.479697 167.877475 247.479697zM198.893886 549.664064c80.513732 80.513732 191.740976 130.311905 314.601164 130.311905s234.087433-49.799196 314.601164-130.311905l-53.451376-53.451376c-66.835198 66.834174-159.165046 108.170628-261.149788 108.170628-101.985766 0-194.314591-41.336454-261.149788-108.170628L198.893886 549.664064zM348.857363 399.699564c42.133609 42.135656 100.342336 68.195172 164.637688 68.195172 64.294328 0 122.504078-26.060539 164.637688-68.195172l54.878888 54.880935c-56.177464 56.181557-133.788076 90.927919-219.515552 90.927919s-163.338089-34.746362-219.515552-90.927919L348.857363 399.699564zM444.771853 303.786097c17.588587 17.588587 41.885969 28.466332 68.723198 28.466332 26.837228 0 51.134611-10.878768 68.723198-28.466332l53.92926 53.928237c-31.389918 31.389918-74.753541 50.808176-122.652458 50.808176-47.898917 0-91.26561-19.418258-122.653481-50.808176L444.771853 303.786097z"  horiz-adv-x="1024" />

    
    <glyph glyph-name="home" unicode="&#58905;" d="M986.682 370.605l-393.311 379.753c-83.743 91.241-162.751 0-162.751 0l-393.31-366.188c-29.844-114.317 81.372-81.378 81.372-81.378l325.502 298.374c75.656 75.616 135.623 0 135.623 0l339.066-311.937c100.552-20.236 67.807 81.377 67.807 81.377zM566.243 519.792c0 0-60.786 51.998-108.493 0l-311.939-284.816v-230.56c0 0 13.849-20.372 40.686-27.129 12.637 1.802 230.565 0 230.565 0v149.188c0 0-1.947 10.677 13.558 13.565h162.751c0 0 11.949 8.769 13.565-13.565v-149.187h217.001c0 0 35.289-4.278 40.694 27.129l-0 230.559-298.388 284.816z"  horiz-adv-x="1024" />

    
    <glyph glyph-name="banquan" unicode="&#59093;" d="M678.61318 482.17088l-33.552164-21.125133c-28.999474 38.523385-68.765153 57.784054-119.296013 57.784054-39.764656 0-73.113181-12.737092-100.033297-38.2123-26.930349-25.475208-40.387849-57.066717-40.387849-94.754061 0-37.697577 13.251815-70.007447 39.765679-96.928586 26.503631-26.930349 60.054771-40.386826 100.655468-40.386826 48.463782 0 88.22946 19.260669 119.296013 57.783031l33.552164-22.367427c-16.572444-24.02723-38.83447-42.463114-66.793242-55.29742s-58.095139-19.261693-90.403986-19.261693c-50.949392 0-93.50972 16.776082-127.684054 50.328245s-51.260477 74.346265-51.260477 122.402771c0 48.872081 17.290805 90.609671 51.881624 125.199467 34.580586 34.58161 79.006402 51.881624 133.275399 51.881624 31.891338 0 61.404512-6.835685 88.539522-20.503986C643.29479 525.043317 664.108838 506.189923 678.61318 482.17088zM510.5423 703.715649c-176.401616 0-319.40354-143.002948-319.40354-319.404564 0-176.403662 143.001925-319.40354 319.40354-319.40354 176.404686 0 319.404564 142.999878 319.404564 319.40354C829.946864 560.712701 686.946986 703.715649 510.5423 703.715649zM510.543324 113.547335c-149.539828 0-270.764773 121.223922-270.764773 270.76375 0 149.537781 121.224945 270.764773 270.764773 270.764773 149.538805 0 270.76375-121.226992 270.76375-270.764773C781.307074 234.771257 660.082128 113.547335 510.543324 113.547335z"  horiz-adv-x="1024" />

    
    <glyph glyph-name="baohusan" unicode="&#58883;" d="M512-93.866667C248.5248-93.866667 34.133333 120.5248 34.133333 384S248.5248 861.866667 512 861.866667s477.866667-214.357333 477.866667-477.866667S775.4752-93.866667 512-93.866667zM512 804.1472C280.337067 804.1472 91.886933 615.662933 91.886933 384c0-231.662933 188.450133-420.113067 420.113067-420.113067S932.113067 152.337067 932.113067 384C932.113067 615.662933 743.662933 804.1472 512 804.1472zM845.346133 249.617067 825.685333 249.617067c-10.9568 44.509867-48.708267 77.448533-94.1056 77.448533-45.431467 0-83.182933-32.938667-94.1056-77.448533l-31.368533 0c-10.922667 44.509867-48.7424 77.448533-94.1056 77.448533-45.397333 0-83.182933-32.938667-94.1056-77.448533l-31.368533 0c-10.922667 44.509867-48.708267 77.448533-94.1056 77.448533-45.3632 0-83.182933-32.938667-94.071467-77.448533L178.653867 249.617067C173.533867 274.568533 170.666667 300.407467 170.666667 326.997333c0 194.798933 145.237333 353.28 327.099733 361.233067l0 14.336c0 12.561067 9.557333 22.766933 21.333333 22.766933 11.776 0 21.333333-10.171733 21.333333-22.766933l0-15.086933C715.605333 672.119467 853.333333 516.7104 853.333333 326.997333 853.333333 300.407467 850.466133 274.5344 845.346133 249.617067zM419.566933 164.0448c9.250133 0 16.930133-6.382933 19.899733-15.189333l1.4336 0-0.068267-7.304533c0-0.1024 0.068267-0.170667 0.068267-0.3072 0-0.1024-0.068267-0.2048-0.068267-0.3072l-0.170667-20.753067c0-14.301867 15.223467-32.017067 28.672-32.017067 13.4144 0 28.433067 16.008533 28.433067 30.344533l0 136.533333 42.666667 0 0-136.533333c0-42.8032-30.685867-75.844267-71.099733-75.844267-40.448 0-71.099733 33.041067-71.099733 75.844267l0 30.344533 1.4336 0C402.602667 157.661867 410.282667 164.0448 419.566933 164.0448z"  horiz-adv-x="1024" />

    
    <glyph glyph-name="renyuan" unicode="&#59202;" d="M496.478572 235.81261500000005c17.177953 0 31.10591-13.933153 31.10591-31.10591 0-17.180951-13.928956-31.104711-31.10591-31.104711-17.177953 0-31.103912 13.92376-31.103912 31.104711C465.366665 221.88066100000003 479.299619 235.81261500000005 496.478572 235.81261500000005L496.478572 235.81261500000005zM496.478572-64.07626000000005c0 0-78.28852 29.511191-78.28852 71.809113 0 29.929908 29.582743 97.4925 52.384883 145.11761 7.804908-3.906551 16.579759-6.160024 25.903637-6.160024 9.32188 0 18.095731 2.252273 25.89944 6.160024 22.800142-47.62511 52.385882-115.187703 52.385882-145.11761C574.764094-34.565268999999944 496.478572-64.07626000000005 496.478572-64.07626000000005L496.478572-64.07626000000005zM856.484488-63.71590500000002c-20.091978 0-36.429901 16.350314-36.429901 36.441293 0 101.690854-46.414531 195.476467-127.326273 257.310344-15.970372 12.206124-19.0267 35.128183-6.827771 51.096357 12.156958 15.94359 35.07382 19.027699 51.053386 6.835965l0.007195-0.017388c99.119997-75.748443 155.965655-190.637947 155.965655-315.225277C892.92678-47.366390000000024 876.58366-63.71590500000002 856.484488-63.71590500000002L856.484488-63.71590500000002zM496.478572 832.079146c-147.709053 0-267.87658-120.175721-267.87658-267.886773 0-90.214035 46.437116-174.371576 120.913221-223.525849C200.912166 281.03595399999995 100.027365 134.737344 100.027365-27.275611000000026c0-20.090778 16.347317-36.441293 36.440293-36.441293s36.433098 16.350314 36.433098 36.441293c0 178.425627 145.16158 323.594403 323.579013 323.588207 147.712051 0 267.882775 120.167526 267.882775 267.879578C764.361347 711.904425 644.190623 832.079146 496.478572 832.079146zM496.478572 369.19418199999996c-107.519902 0-194.997192 87.480288-194.997192 195.004387 0 107.520901 87.477091 195.00019 194.997192 195.00019 107.528096 0 195.006386-87.480288 195.006386-195.00019C691.484957 456.674471 604.006867 369.19418199999996 496.478572 369.19418199999996z"  horiz-adv-x="1024" />

    
    <glyph glyph-name="gongzuoleixing" unicode="&#58911;" d="M892.214023 780.105457 131.784954 780.105457c-35.024701 0-63.397912-28.373211-63.397912-63.398936l0-538.680663c0-35.021631 28.373211-63.394842 63.397912-63.394842l292.51924 0c-50.157353-27.64871-134.110417-77.584006-134.110417-95.069239 0-17.48114 21.281699-31.667234 47.533596-31.667234l380.216581 0c26.249851 0 47.532573 14.186094 47.532573 31.667234 0 17.485233-82.947154 67.36527-132.047432 95.069239L892.214023 114.631016c35.021631 0 63.397912 28.374234 63.397912 63.394842L955.611935 716.706521C955.611935 751.732246 927.234631 780.105457 892.214023 780.105457L892.214023 780.105457zM892.214023 368.161267c0-35.021631-28.373211-63.393819-63.397912-63.393819L195.124538 304.767448c-35.021631 0-63.394842 28.373211-63.394842 63.393819L131.729695 653.367961c0 35.020608 28.373211 63.393819 63.394842 63.393819l633.749902 0c35.021631 0 63.393819-28.373211 63.393819-63.393819l0-285.206694L892.214023 368.161267zM892.214023 368.161267"  horiz-adv-x="1024" />

    
    <glyph glyph-name="wenshu" unicode="&#58907;" d="M512.092 230.83l51.21 0 0 51.185-51.21 0 0-51.185zM563.308 640.241l-307.205 0 0-204.698 307.205 0 0 204.698zM460.887 333.184l102.415 0 0 51.169-102.415 0 0-51.169zM460.887 282.015l-204.785 0 0-51.185 204.79 0 0 51.185zM819.297 691.415l0 51.174-102.4 0 0 51.18-614.4 0 0-665.287c0-84.797 68.767-153.529 153.6-153.529l511.974 0c84.838 0 153.626 68.736 153.626 153.527l0 562.934-102.4 0zM665.692 26.102l-409.59 0c-28.283 0-102.415 50.109-102.415 102.38l0 614.134 512.005 0 0-716.513zM870.497 102.861c0-42.383-34.391-76.759-76.8-76.759s-76.8 34.375-76.8 76.759l0 588.554 51.18 0 0-588.554c0-14.131 11.474-25.585 25.62-25.585 14.137 0 25.6 11.453 25.6 25.585l0 537.38 51.2 0 0-537.38zM409.692 384.353l-153.59 0 0-51.169 153.59 0 0 51.169zM563.292 179.657l-307.19 0 0-51.174 307.19 0 0 51.174z"  horiz-adv-x="1024" />

    
    <glyph glyph-name="signout" unicode="&#58901;" d="M1001.420066 403.192944 689.816979 800.035281c-9.031974 10.725469-28.224917 14.112459-29.918412-7.338479l0-249.508269L340.957001 543.188534c-5.080485 0-10.725469-9.031974-10.725469-17.499449l0-283.37817c0-10.725469 5.080485-17.499449 10.725469-17.499449l317.248071 0 0-242.734289c0-29.918412 23.144432-24.837927 29.918412-14.112459l311.603087 400.229327C1010.45204 376.661521 1008.758545 394.725469 1001.420066 403.192944zM147.334068 706.328556l303.135612-1.693495L450.46968 807.37376 181.203969 807.37376C103.303197 807.37376 39.514884 743.585447 39.514884 665.684675L39.514884 111.347299c0-77.900772 63.788313-141.689085 141.689085-141.689085l269.265711 0 0 101.045204-306.522602 1.693495L147.334068 706.328556z"  horiz-adv-x="1024" />

    
    <glyph glyph-name="fangdajing" unicode="&#58941;" d="M989.365677-7.944258l-201.496774 200.40671c53.611355 71.911226 85.322323 161.147871 85.322323 257.651613 0 237.534968-192.165161 430.757161-428.32929 430.757161-236.164129 0-428.32929-193.222194-428.32929-430.757161 0-237.501935 192.165161-430.674581 428.32929-430.674581 96.322065 0 185.228387 32.107355 256.858839 86.23071L903.597419-95.149419c11.924645-11.792516 27.35071-17.70529 42.892387-17.70529 15.706839 0 31.430194 6.044903 43.354839 18.21729C1013.495742-70.556903 1013.330581-31.744 989.365677-7.944258zM444.861935 142.03871c-168.96 0-306.407226 138.223484-306.407226 308.058839 0 169.917935 137.43071 308.108387 306.407226 308.108387 168.976516 0 306.407226-138.190452 306.407226-308.108387C751.269161 280.262194 613.838452 142.03871 444.861935 142.03871z"  horiz-adv-x="1024" />

    
    <glyph glyph-name="inventory" unicode="&#59128;" d="M512 290.624 0 593.344 512 896 1024 593.344ZM512 196.992 95.296 443.328 0 387.008 512 84.352 1024 387.008 928.704 443.328ZM512-15.36 95.296 231.04 0 174.72 512-128 1024 174.72 928.704 231.04Z"  horiz-adv-x="1024" />

    
    <glyph glyph-name="inbox-2" unicode="&#58954;" d="M832-128H192a192 192 0 0 0-192 192v192l220.48 220.48a192.234667 192.234667 0 0 1 27.776-36.16l58.624-58.624L128 192h192v-64a64 64 0 0 1 64-64h256c35.392 0 64 28.608 64 64v64h192l-178.88 189.696 58.624 58.624a194.261333 194.261333 0 0 1 27.84 36.096L1024 256v-192a192 192 0 0 0-192-192zM557.248 402.816c-12.48-12.48-28.864-18.752-45.248-18.752s-32.768 6.272-45.248 18.752l-128 128a64.213333 64.213333 0 0 0-13.888 69.76A63.978667 63.978667 0 0 0 384 640h64V832a64.021333 64.021333 0 0 0 128 0v-192h64c25.856 0 49.28-15.616 59.136-39.488a64 64 0 0 0-13.888-69.696l-128-128z"  horiz-adv-x="1024" />

    
    <glyph glyph-name="inbox" unicode="&#58955;" d="M832 896a192 192 0 0 0 192-192v-640a192 192 0 0 0-192-192H192a192 192 0 0 0-192 192V704a192 192 0 0 0 192 192h128v-128H192C156.672 768 128 739.328 128 704v-640a64 64 0 0 1 64-64h640c35.392 0 64 28.608 64 64V704a64 64 0 0 1-64 64h-128V896h128zM320 256h384l128-192H192z m146.752 146.752l-128 128a64.106667 64.106667 0 0 0-13.888 69.76A64.042667 64.042667 0 0 0 384 640h64V832a64 64 0 0 0 64 64c35.392 0 64-28.608 64-64v-192h64c25.856 0 49.28-15.616 59.136-39.488a64.213333 64.213333 0 0 0-13.888-69.76l-128-128A63.829333 63.829333 0 0 0 512 384a63.829333 63.829333 0 0 0-45.248 18.752z"  horiz-adv-x="1024" />

    
    <glyph glyph-name="19" unicode="&#59051;" d="M794.863882 454.920648h-53.318409V581.820508c0 126.695183-102.85029 229.75015-229.545473 229.75015C385.304817 811.570658 282.454527 708.413352 282.454527 581.615831c0-18.21627 14.839097-33.055367 33.055367-33.055367 18.21627 0 33.055367 14.839097 33.055367 33.055367 0 90.364981 73.274435 163.844094 163.434739 163.844093S675.434739 672.08315 675.434739 581.820508v-126.89986H229.75015c-18.21627 0-33.362383-14.532081-33.362383-32.748351v-383.360384c0-45.540676 37.353588-82.587248 82.894264-82.587248h466.04997c45.540676 0 82.38257 37.046572 82.38257 82.587248V422.172297c-0.102339 18.21627-14.532081 32.748351-32.850689 32.748351z m-33.260044-416.108735c0-9.108135-7.163702-16.578853-16.271837-16.578853H279.282031c-9.108135 0-16.885868 7.470718-16.885869 16.578853v349.998001h499.207676v-349.998001zM512 106.560064c18.21627 0 33.055367 14.839097 33.055367 33.055367V258.53288c0 18.21627-14.736758 33.055367-33.055367 33.055367-18.21627 0-33.055367-14.839097-33.055367-33.055367v-119.019788c0.102339-18.21627 14.839097-32.953028 33.055367-32.953028z"  horiz-adv-x="1024" />

    
    <glyph glyph-name="bangongyongpincaigou" unicode="&#59047;" d="M919.893333-6.403413L461.646507 787.155627c-2.853547 5.065387-9.270613 7.53664-14.841174 5.98016-5.61152-1.488213-9.898667-6.5536-9.898666-12.342614v-793.6c0-7.031467 6.580907-19.61984 13.707946-19.61984h458.164907c4.54656 0 8.8064 5.870933 11.10016 9.803094 2.266453 4.01408 2.266453 12.301653 0.013653 16.22016zM464.213333-5.12v122.88h9.37984c7.099733 0 12.806827 6.63552 12.806827 13.653333 0 7.113387-5.69344 13.653333-12.806827 13.653334H464.213333v40.96h34.97984c7.113387 0 12.77952 6.59456 12.77952 13.612373 0 7.154347-5.666133 13.694293-12.77952 13.694293H464.213333v54.613334h9.37984c7.099733 0 12.806827 6.608213 12.806827 13.653333 0 7.113387-5.69344 13.653333-12.806827 13.653333H464.213333v54.613334h34.97984c7.113387 0 12.77952 6.580907 12.77952 13.653333 0 7.113387-5.666133 13.653333-12.77952 13.653333H464.213333v40.96h9.37984c7.099733 0 12.806827 6.608213 12.806827 13.63968 0 7.113387-5.69344 13.666987-12.806827 13.666987H464.213333v54.613333h34.97984c7.113387 0 12.77952 6.608213 12.77952 13.653334 0 7.113387-5.666133 13.653333-12.77952 13.653333H464.213333v54.613333h9.37984c7.099733 0 12.806827-0.232107 12.806827 6.813014 0 7.113387-5.69344 6.84032-12.806827 6.84032H464.213333V733.02016L886.62016-5.12H464.213333zM578.60096 104.106667h108.516693c4.573867 0 8.8064 1.624747 11.127467 5.543253a12.356267 12.356267 0 0 1 0 12.36992L589.66016 309.725867c-2.894507 5.024427-11.851093 7.33184-17.421653 5.81632-5.625173-1.447253-12.45184-6.59456-12.45184-12.465494v-187.897173c0-7.017813 11.700907-11.072853 18.814293-11.072853zM587.093333 255.34464L664.94464 131.413333H587.093333v123.931307zM225.266347 793.572693C154.692267 793.572693 95.573333 736.13312 95.573333 665.6v-499.22048c0-2.389333 4.123307-4.79232 5.474987-6.88128l116.913493-179.213653c2.321067-3.6864 7.24992-5.89824 11.578027-5.89824 4.3008 0 8.820053 2.21184 11.127467 5.89824l113.718613 179.213653c1.365333 2.102613 0.600747 4.5056 0.600747 6.894933V613.348693c0 0.136533-0.232107 0.32768-0.232107 0.477867 0 0.232107 0.232107 0.300373 0.232107 0.57344v51.2c0 70.53312-59.159893 127.972693-129.72032 127.972693zM122.88 554.666667h95.573333v-382.293334H122.88V554.666667z m107.52-546.379094L212.718933 35.84h35.362134l-17.681067-27.552427z m34.133333 54.859094h-68.307626l-57.617067 95.573333h183.54176l-57.617067-95.573333zM327.68 172.373333h-81.92V554.666667h81.92v-382.293334z m0 409.6H122.88v13.653334h204.8v-13.653334z m0 40.96H122.88v42.666667c0 56.456533 45.943467 102.4 102.413653 102.4 56.497493 0 102.386347-45.943467 102.386347-102.4V622.933333z"  horiz-adv-x="1024" />

    
    <glyph glyph-name="bangongzidonghua" unicode="&#58960;" d="M949.76 27.648h-271.36c-24.576 0-49.152 2.56-49.152 27.648v132.096h233.984c15.36 0 28.16 19.456 28.16 43.008 0 23.552-12.288 43.008-28.16 43.008h-233.984v70.144h233.984c15.36 0 28.16 19.456 28.16 43.008 0 23.552-12.288 43.008-28.16 43.008h-233.984V516.096h233.984c15.36 0 28.16 19.456 28.16 43.008 0 23.552-12.288 43.008-28.16 43.008h-233.984V716.288c0 24.576 19.968 45.056 44.544 45.056H938.496C963.072 761.344 983.04 741.376 983.04 716.288V55.296c0-25.088-9.216-27.648-33.28-27.648z m-428.544-100.864l-441.856 90.624c-25.088 6.144-43.008 28.16-43.52 54.272l-1.536 637.952c0.512 25.6 18.432 48.128 43.52 53.248l442.88 82.944c24.064 4.608 55.808-9.216 55.808-33.792v-852.992c0-25.088-31.232-37.888-55.808-33.792l0.512 1.536z m-259.072 520.192c-16.896 23.552-44.544 37.376-73.216 35.84-29.184 1.024-56.32-12.288-73.216-35.84-16.896-23.552-25.088-52.224-24.064-80.896-1.024-28.672 7.168-57.344 24.064-80.896 16.896-24.064 44.544-37.376 73.216-36.352 29.184-1.024 56.832 12.8 73.216 36.352 16.896 23.552 25.088 52.224 24.064 80.896 1.024 29.184-7.68 57.344-24.064 80.896z m198.656-75.264h-2.56v1.024h1.536l-44.544 108.544h-31.744l-93.184-229.888h35.328l25.6 62.976h97.792l25.6-62.976h35.328l-49.152 120.32z m-60.928 62.464l36.352-88.064h-71.68l35.328 88.064z m-211.456-153.6c-19.968-0.512-38.4 10.24-48.128 27.648-10.752 17.408-15.872 37.376-15.36 57.856-1.024 20.48 4.096 40.448 14.848 57.856 10.24 17.408 28.672 27.136 48.64 26.624 19.968 0.512 38.4-9.728 48.64-26.624 10.24-17.408 15.36-37.376 14.336-57.856 1.024-20.48-4.608-40.96-14.848-58.368-9.728-17.408-28.16-28.16-48.128-27.136z"  horiz-adv-x="1024" />

    
    <glyph glyph-name="yewu" unicode="&#58899;" d="M852.62 634.386H737.944v43.977c0 55.398-45.057 100.435-100.44 100.435H384.533c-55.381 0-100.433-45.038-100.433-100.435v-43.977H169.424c-55.385 0-100.438-45.059-100.438-100.434v-440.558c0-55.396 45.053-100.433 100.438-100.433H852.62c55.38 0 100.434 45.037 100.434 100.433v212.9c-60.439 0-120.65-0.15-181.192-0.15v-43.47c0-24.256-19.85-44.106-44.11-44.106-24.26 0-44.11 19.85-44.11 44.107v43.469H338.404v-43.47c0-24.256-19.85-44.106-44.11-44.106-24.261 0-44.11 19.85-44.11 44.107v43.469c-60.587 0-120.744 0.086-181.191 0.086v59.288c60.442 0 120.785 0.36 181.207 0.36 0.355 23.961 20.05 43.47 44.094 43.47 24.045 0 43.74-19.51 44.095-43.47h345.268c0.354 23.961 20.056 43.47 44.094 43.47 24.044 0 43.746-19.51 44.095-43.47 60.45 0 120.79-0.254 181.209-0.254V533.952c0.005 55.374-45.055 100.434-100.436 100.434z m-508.782 43.976c0 22.435 18.26 40.695 40.694 40.695h252.973c22.441 0 40.695-18.26 40.695-40.695v-43.977H343.838v43.977z"  horiz-adv-x="1024" />

    
    <glyph glyph-name="fangxiang" unicode="&#58920;" d="M547.977168 881.017919c-19.960805 19.971007-52.490846 19.971007-72.191492 0L14.98338 420.225826c-19.971007-19.971007-19.971007-52.480644 0-72.456753l460.802296-460.537035v-0.255058c19.965906-19.971007 52.475543-19.971007 72.451651 0l460.792093 460.792093c19.971007 20.231166 19.971007 52.485745-0.255058 72.456753L547.977168 881.017919z m66.304764-624.891028v128.003188H409.475811v-153.600765H307.080402V435.330334a51.00131 51.00131 0 0 0 14.946373 36.253882 50.996209 50.996209 0 0 0 36.253882 14.946373h256.001275V614.528677l179.198342-179.193241-179.198342-179.208545z m179.198342 179.203443"  horiz-adv-x="1027" />

    
    <glyph glyph-name="fenzu" unicode="&#58934;" d="M344.51512 298.7c8.6 3.3 19.1 6.2 31.5 14.1 18.1 11.4 32 34.8-1.6 63.6-111.4 160.5-70.8 267.1-53.9 307.2-14.1 5.5-30.3 8.8-48.6 8.8H266.21512c-106.6 0-134.9-97-137.1-151.3-1.4-128.2 76.9-179.2 76.9-179.2s4.9-6.7 4.9-26.3c0-4.5-2.9-17.8-8-21.8C159.21512 278.4 13.21512 241.5 3.01512 165.1c-5.4-22-2.1-44.9-1.1-66.1 23.9-18.3 100.5-33.9 100.5-33.9s6.3 19.3 12.8 51.2c9.4 47.1 73.3 123.4 229.3 182.4z m676.5-133c-10.4 76.2-160.4 113-205.2 148.5-5.2 4-8.1 17.4-8.1 21.8 0 19.6 4.9 26.3 4.9 26.3s80.3 50.9 78.9 178.9c-2.2 54.3-36.1 151.1-140.5 151.1h-6c-22.5 0-41.4-4.2-57.6-11.3 22.4-74.8 49.1-212-63.8-303.9-44.3-66 103.3-104.8 80.3-94.5 133.6-60 169.4-106 179.3-153.6 8.2-39.8 12.8-64 12.8-64s100 15.2 125.9 34.7c1.3 21.1 4.6 44-0.9 66zM585.61512 312c-6.3 5-10 21.6-10 27.1 0 24.3 6.1 32.6 6.1 32.6-0.1-0.1 98.7 53.4 96.7 222.4-2.6 67.6-44.1 187.9-172.3 187.9h-7.3c-134 0-169.7-120.3-172.4-187.9-1.7-159 96.8-222.4 96.8-222.4s12-13.6 12-37.9c0-5.5-9.5-16.8-15.8-21.8-55-44-253-88.3-265.9-183-10-40.2-68.7-103.9 126.8-129.6 53.8-7 127-11.3 225.8-11.3 453.4 0 359.6 87.8 347 139.3-12.8 94.8-212.5 140.7-267.5 184.6z m0 0"  horiz-adv-x="1024" />

    
    <glyph glyph-name="jiaoseguanli" unicode="&#59088;" d="M882.845 777.1875c-1.35-0.77625001-33.31125001-18.19124999-93.72374999-35.37-56.73375001-16.16625001-150.96375001-35.37-277.39125001-35.37-126.4275 0-220.59 19.20374999-277.32375001 35.37C173.99374999 758.99624999 142.06625001 776.3775 140.6825 777.1875L91.07 805.7737499899999l0.77625001-56.53124999c1.755-122.74875001 19.1025-236.41875001 51.67124999-337.80374999 27.50625001-85.6575 66.15-163.485 114.78374999-231.3225 87.78374999-122.41124999 186.94125001-183.70124999 238.30875001-209.41875001l0.0675-0.03374999 14.95124999-7.45875001 14.85 7.4925v0.03375001c51.33375001 25.88624999 150.62625001 87.51374999 238.17375001 209.28374999 48.83625001 67.93874999 87.64875001 145.76625001 115.2225 231.39 32.67 101.41875001 50.085 215.08875001 51.87374999 337.8375L932.69375001 805.875l-49.84875001-28.6875zM192.08375001 509.38125001c130.84874999 97.2 235.9125 0 235.91249998-2e-8-132.705-118.8-235.9125 0-235.91249998 0z m320.32124999-510.435l-0.91124999 0.50624999 0.03374999 113.8725 0.10125001-0.10125001c131.45625001 82.215 152.44874999 170.4375 152.44874999 170.43750002h-152.4825c0.10125001 184.545 0.2025 390.99375001 0.3375 390.99374999 255.285 0 387.68624999 75.02625001 387.68624999 75.02625001-7.25625001-516.915-292.51125001-703.1475-387.21374999-750.735z m0-2e-8M512.49152-83.5584s0.08192 0.04096 0 0.12288c-0.08192-0.08192 0-0.12288 0-0.12288z m0 0"  horiz-adv-x="1024" />

    
    <glyph glyph-name="fenzu1" unicode="&#59164;" d="M341.4 866h341.3v-280H341.4V866z m68.3-700h204.8v-280H409.7V166zM0.1 166h204.8v-280H0.1V166z m819.2 0h204.8v-280H819.3V166zM136.6 376H478v-140h68.3V376h341.3v-140h68.3V446H546.2v70H478v-70H68.4v-210h68.3V376z m0 0"  horiz-adv-x="1024" />

    
    <glyph glyph-name="bangongzichan" unicode="&#58969;" d="M312.9344 752.8448l195.584-109.568c1.024-0.6144 2.2528-1.024 3.4816-1.024 1.2288 0 2.2528 0.2048 3.4816 1.024l195.584 109.568c2.2528 1.2288 3.4816 3.4816 3.4816 6.144s-1.4336 4.7104-3.4816 6.144l-195.584 109.568c-2.048 1.2288-4.5056 1.2288-6.7584 0L312.9344 764.928c-2.2528-1.2288-3.4816-3.4816-3.4816-6.144 0-2.4576 1.4336-4.7104 3.4816-5.9392zM710.8608 437.6576l-195.584 109.568c-2.048 1.2288-4.5056 1.2288-6.7584 0l-195.584-109.568c-2.2528-1.2288-3.4816-3.4816-3.4816-6.144 0-0.2048 0.2048-0.4096 0.2048-0.6144-0.2048-0.4096-0.2048-1.024-0.2048-1.4336V13.312c0-6.144 3.2768-11.4688 8.3968-14.5408l185.7536-104.2432c2.4576-1.4336 5.3248-2.2528 8.192-2.2528 2.6624 0 5.5296 0.6144 8.192 2.2528l185.7536 104.2432c5.3248 2.8672 8.3968 8.3968 8.3968 14.5408V429.4656c0 0.6144 0 1.024-0.2048 1.4336 0 0.2048 0.2048 0.4096 0.2048 0.6144 0.2048 2.6624-1.024 4.9152-3.2768 6.144zM495.4112-62.464l-152.7808 85.6064V408.9856l152.576-85.6064 0.2048-385.8432z m185.7536 85.6064L528.5888-62.464V323.3792l152.576 85.6064v-385.8432zM425.3696 594.944c0 2.4576-1.4336 4.7104-3.4816 6.144l-195.3792 109.568c-2.048 1.2288-4.5056 1.2288-6.7584 0L24.1664 601.088c-2.2528-1.2288-3.4816-3.4816-3.4816-6.144 0-0.2048 0.2048-0.2048 0.2048-0.4096s-0.2048-0.2048-0.2048-0.4096 0.2048-0.4096 0.2048-0.6144c0-0.4096-0.2048-1.024-0.2048-1.4336v-415.9488c0-6.144 3.2768-11.4688 8.3968-14.5408l185.7536-104.2432c2.4576-1.4336 5.3248-2.2528 8.192-2.2528s5.5296 0.6144 8.192 2.2528l8.3968 4.7104V486.4l182.272 102.4c2.2528 1.4336 3.4816 3.6864 3.4816 6.144zM206.4384 100.1472l-152.576 85.6064V571.392l152.576-85.6064v-385.6384zM1003.3152 594.1248c0 0.2048-0.2048 0.2048-0.2048 0.4096s0.2048 0.2048 0.2048 0.4096c0 0.6144-0.2048 1.2288-0.2048 1.8432v0.2048c-0.6144 1.8432-1.6384 3.2768-3.2768 4.096l-183.5008 102.8096-12.0832 6.7584c-0.6144 0.2048-1.024 0.6144-1.6384 0.6144-0.6144 0.2048-1.2288 0.2048-1.8432 0.2048-1.2288 0-2.2528-0.2048-3.4816-1.024l-24.1664-13.5168-171.4176-96.256c-1.6384-1.024-2.6624-2.4576-3.2768-4.096-0.2048-0.6144-0.2048-1.2288-0.2048-1.8432 0-2.4576 1.4336-4.7104 3.4816-6.144l182.272-102.4v-424.5504l8.3968-4.7104c2.4576-1.4336 5.3248-2.2528 8.192-2.2528 2.6624 0 5.5296 0.6144 8.192 2.2528l185.7536 104.2432c5.3248 2.8672 8.3968 8.3968 8.3968 14.5408V592.0768c0 0.6144 0 1.024-0.2048 1.4336 0.6144 0.2048 0.6144 0.4096 0.6144 0.6144z m-33.1776-408.3712l-152.576-85.6064V485.9904l152.576 85.6064v-385.8432z"  horiz-adv-x="1024" />

    
    <glyph glyph-name="zuoye_dailiwenjianchuanshu" unicode="&#58900;" d="M959.291 282.014L699.799 541.533v-168.287H473.09v-183.291h226.709v-167.461zM418.35 134.225H128.768v59.744H418.35v61.059H128.768V314.88H418.35v59.358H128.768v59.795h441.326V731.969c0 8.024-6.513 14.564-14.563 14.564H79.661c-8.08 0-14.564-6.54-14.592-14.564v-686.174c0.027-8.021 6.512-14.562 14.592-14.562H555.53c8.051 0 14.563 6.541 14.563 14.562v88.156H418.35v0.274zM128.768 653.211h368.011v-59.796H128.768v59.796z m0-103.049h368.011v-59.852H128.768v59.852z"  horiz-adv-x="1024" />

    
    <glyph glyph-name="wenjianchuanshu" unicode="&#58902;" d="M643.072-23.039999999999964c-17.408 14.336-19.456 35.328-19.456 35.328l-6.656 46.08h-209.92l-6.656-46.08s-2.048-20.992-19.456-35.328c-17.408-13.824-31.232-26.112-17.408-28.16 13.312-2.048 139.264 0 148.48 0 9.216 0 135.168-2.048 148.48 0 13.824 2.048 0 13.824-17.408 28.16zM977.92 820.224H46.08c-22.528 0-40.448-19.968-40.448-44.032v-640.512c0-24.576 17.92-44.032 40.448-44.032h931.84c22.528 0 40.448 19.968 40.448 44.032V776.192c0 24.064-17.92 44.032-40.448 44.032z m-20.48-585.728H66.56V764.928h890.88v-530.432zM303.616 539.136h224.768v-54.272c0-1.024 0-2.048 0.512-3.072v-1.024c0-0.512 0.512-1.536 1.024-2.048 0 0 0-0.512 0.512-0.512 0.512-0.512 1.024-1.536 1.536-2.048 1.024-1.024 2.048-1.536 3.072-2.048 4.096-2.048 9.216-1.536 13.312 1.024l117.76 82.944c3.072 2.56 5.12 6.144 5.12 10.24s-2.048 7.68-5.12 10.24l-117.248 83.456c-2.56 1.536-5.12 2.56-8.192 2.048-1.024 0-1.536 0-2.56-0.512-1.024 0-2.048-0.512-2.56-1.024-4.096-2.048-7.168-6.656-7.168-11.264v-54.272H303.616c-16.384 0-29.696-12.8-29.696-29.184 0-15.36 13.312-28.672 29.696-28.672z m337.92-109.568H416.768V483.84c0 4.608-2.56 8.704-7.168 11.264-1.024 0.512-1.536 0.512-2.56 1.024-1.024 0-1.536 0.512-2.56 0.512-2.56 0-5.632-0.512-8.192-2.048L279.04 410.624c-3.072-2.56-5.12-6.144-5.12-10.24s2.048-7.68 5.12-10.24l117.248-83.456c4.096-2.56 9.216-3.072 13.312-1.024 1.024 0.512 2.048 1.024 3.072 2.048 0.512 0.512 1.024 1.536 1.536 2.048l0.512 0.512c0.512 0.512 0.512 1.536 1.024 2.048v1.024c0.512 1.024 0.512 2.048 0.512 3.072v54.272h224.768c16.384 0 29.696 12.8 29.696 29.184 0.512 16.384-12.8 29.696-29.184 29.696z"  horiz-adv-x="1024" />

    
    <glyph glyph-name="bangzhu" unicode="&#58918;" d="M512.1-63.8h-1.9c-119.6 0.5-231.9 47.5-316.1 132.4S63.7 266.2 64.2 385.8c1 246.3 201.7 446 447.8 446h1.8c246.9-1 447-202.7 446-449.6-0.5-119.6-47.5-231.9-132.4-316.1-84.5-83.8-196.4-129.9-315.3-129.9z m-0.1 853.2c-222.8 0-404.5-180.8-405.4-403.8-0.4-108.3 41.3-210.2 117.6-287.1 76.3-76.9 177.9-119.4 286.2-119.9h1.7c107.7 0 209 41.7 285.5 117.6 76.9 76.3 119.4 177.9 119.9 286.2 0.9 223.5-180.2 406.1-403.8 407H512zM512 131.6m-43.9 0a43.9 43.9 0 1 1 87.8 0 43.9 43.9 0 1 1-87.8 0ZM512 84.2c-26.1 0-47.4 21.3-47.4 47.4 0 26.1 21.3 47.4 47.4 47.4 26.1 0 47.4-21.3 47.4-47.4 0-26.1-21.3-47.4-47.4-47.4z m0 87.7c-22.2 0-40.3-18.1-40.3-40.3 0-22.2 18.1-40.3 40.3-40.3s40.3 18.1 40.3 40.3c0 22.2-18.1 40.3-40.3 40.3zM606.7 395c-49.6-36.1-71.9-79.7-67.3-130.8 0.3-1.7 0.5-3.4 0.5-5.1 0-17.8-14.5-32.3-32.3-32.3-17.8 0-32.3 14.5-32.3 32.3 0 0.8 0.2 1.5 0.2 2.2h-0.1c-1.9 36.8 2 65 11.8 84.4 5.8 17.5 25.3 42.7 58.3 75.7l5.8 5.8c40.8 34.9 59.3 66.9 55.5 96-5.7 56.3-35.8 85.5-90.1 87.6-67.7-1.9-100.7-41.3-99.2-118.3 0-0.6 0.2-1.1 0.2-1.6 0-18.5-15-33.6-33.6-33.6-18.5 0-33.6 15-33.6 33.6 0 0.2 0.1 0.5 0.1 0.7-1.8 64.1 18.6 110.6 61.4 139.7 29.2 23.3 65.1 34.9 107.8 34.8 97-7.9 148.5-56.5 154.1-145.8 1.8-40.9-20.6-82.7-67.2-125.3zM507.6 223.3c-19.8 0-35.8 16.1-35.8 35.8 0 0.6 0.1 1.2 0.1 1.8v0.2c-1.9 37.2 2.2 66.1 12.1 85.9 6.1 18.1 25.5 43.2 59.1 76.8l4.6 4.6 1.4 1.4c39.7 33.9 57.9 65.2 54.3 92.8-5.6 54.8-33.9 82.4-86.6 84.5-65.9-1.9-97.2-39.4-95.7-114.6v-0.3c0.1-0.5 0.1-0.9 0.1-1.4 0-20.5-16.6-37.1-37.1-37.1S347 470.3 347 490.8v0.6c-1.9 65 19.3 113 62.8 142.6 29.6 23.6 66.5 35.5 109.5 35.5h0.7c98.7-8.1 151.6-58.2 157.4-149.1 1.9-41.8-21.1-84.8-68.3-128l-0.3-0.2c-48.1-35-70.3-77.9-65.9-127.5 0.3-1.8 0.5-3.6 0.5-5.6 0-19.8-16-35.8-35.8-35.8z m-28.8 41.5h0.4l-0.2-3.8c0-0.4-0.1-0.8-0.1-1.1 0-0.3-0.1-0.5-0.1-0.8 0-15.9 12.9-28.8 28.8-28.8s28.8 12.9 28.8 28.8c0 1.5-0.2 3-0.5 4.6v0.2c-4.7 52.2 18.4 97.2 68.6 133.9 45.5 41.6 67.7 82.7 65.9 122.2-5.6 87.9-54.9 134.6-150.7 142.4h-0.2c-41.5 0-76.9-11.5-105.2-34l-0.2-0.2c-40.7-27.7-60.8-72.5-59.9-133.2h0.1v-3.6c0-0.3 0-0.6-0.1-0.8 0-16.4 13.5-29.9 30.1-29.9s30 13.5 30 30c0 0.1 0 0.3-0.1 0.4 0 0.3-0.1 0.7-0.1 1-1.6 79 33 120 102.7 122h0.2c56.2-2.2 87.6-32.7 93.5-90.8 4-30.1-15-63.4-56.6-99l-1.1-1.1c-1.5-1.5-3.1-3-4.6-4.5-32.6-32.5-51.9-57.5-57.5-74.3l-0.2-0.5c-9.2-17.9-13.1-44.6-11.7-79.1z"  horiz-adv-x="1024" />

    
    <glyph glyph-name="daimabianji" unicode="&#58974;" d="M943.1 815.2c-10.9 11.1-24.1 16.6-39.6 16.6H120.3c-15.5 0-28.8-5.5-39.7-16.6-10.9-11-16.3-24.3-16.3-39.9V-7c0-15.6 5.5-29 16.4-40 10.9-11 24.1-16.5 39.6-16.5h783.2c15.5 0 28.8 5.5 39.7 16.6 10.9 11 16.3 24.3 16.3 39.9V775.2c0 15.7-5.4 29-16.4 40zM886.8 8H137.2V607.3h749.6V8zM847.5 308.7c0.5-8.8-2.4-16.4-8.8-22.8L704 151.7c-6.4-6.4-14.7-9.3-24.8-8.7-9.5 0.4-16.9 3.4-22.4 8.7-5 6.7-7.5 14.4-7.5 23.1 0 8.7 2.5 15.5 7.5 20.5l114.6 114.2L656.7 420c-15.3 14.4-17.5 29.1-6.7 43.9 5.2 7.1 13.3 10.6 24.2 10.5 10.7-0.2 19.4-3.7 26.3-10.5l138.2-137.5c5.4-3.6 8.4-9.5 8.8-17.7zM528.7 457.1c3.4 8.5 9.5 14.8 18.1 19 8.8 4.1 17.3 4.5 25.6 1.2 8.6-3.4 14.9-9.4 19-18.1 4.1-8.7 4.5-17.3 1.2-25.6L491.7 171.9c-3.4-8.5-9.5-14.8-18.1-19-8.8-4.1-17.4-4.5-25.7-1.2-8.5 3.4-14.8 9.5-18.9 18.1-4.2 8.7-4.6 17.3-1.2 25.6l100.9 261.7zM370.3 470.6c6-7.1 8.9-15 8.5-23.6-0.3-8-3.1-14.7-8.5-20.1L255.7 312.8l114.6-114.1c5.5-5.4 8.5-12.2 9-20.5 0.4-9-2.5-16.8-9-23.1-8.8-6.4-17.7-9.4-26.7-8.9-8.1 0.4-14.9 3.4-20.4 8.9L185 292.7c-6.3 6.4-9.3 13.5-8.8 21.4 0.4 7.1 3.4 13.4 8.8 18.8l138.2 137.6c5.4 5.3 12.6 8.1 21.8 8.4 9.7 0.5 18.1-2.3 25.3-8.3z"  horiz-adv-x="1024" />

    
    <glyph glyph-name="chuanshushezhi" unicode="&#58904;" d="M1024.665852 623.65324c0 11.390929-5.177695 22.264089-13.462008 28.477323l-302.89516 237.138433c-6.213234 4.659926-13.462007 6.731004-20.710781 6.213234-2.071078 0-4.142156-0.51777-6.731003-1.035539s-4.659926-1.553309-7.248773-2.588847c-10.87316-6.213234-18.121933-18.121933-18.121933-31.58394v-168.792859h-579.384077c-42.457099 0-76.112117-28.477323-76.112117-74.041039 0-46.081486 33.655018-77.147656 76.112117-77.147656h579.384077v-154.295313c0-3.106617 0.51777-5.695465 1.035539-8.802082 0-0.51777 0.51777-1.553309 0.51777-2.588847 0.51777-2.071078 1.553309-4.142156 2.588847-6.213234 0.51777-0.51777 0.51777-1.035539 1.035539-1.553309 1.035539-2.071078 2.588848-4.142156 4.142156-6.213234 2.588848-3.106617 5.177695-5.177695 8.284312-6.731003 10.87316-6.213234 24.335167-5.177695 34.172788 3.106617l302.89516 237.138433c9.319851 7.248773 14.497546 18.121933 14.497547 29.512862zM0 145.751986c0 11.390929 5.177695 22.264089 13.462007 28.477323l302.895161 237.138434c6.213234 4.659926 13.462007 6.731004 20.71078 6.213234 2.071078 0 4.659926-0.51777 6.731004-1.035539 2.588848-0.51777 4.659926-1.553309 7.248773-2.588848 10.87316-6.213234 18.121933-18.121933 18.121932-31.58394v-154.295312h579.384077c42.457099 0 77.147656-32.101709 77.147657-77.665426s-34.690557-76.112117-77.147657-76.112117h-579.384077V-91.904217c0-3.106617-0.51777-5.695465-1.035539-8.802081 0-0.51777-0.51777-1.553309-0.517769-2.588848-0.51777-2.071078-1.553309-4.142156-2.588848-6.213234-0.51777-0.51777-0.51777-1.035539-1.035539-1.553308-1.035539-2.071078-2.588848-4.142156-4.659925-6.213234-2.588848-3.106617-5.177695-5.177695-8.284312-6.731004-10.87316-6.213234-24.335167-5.177695-34.172788 3.106617l-302.89516 237.138434a38.36672 38.36672 0 0 0-13.979777 29.512861z"  horiz-adv-x="1026" />

    
    <glyph glyph-name="yewu1" unicode="&#58977;" d="M742.4 544H435.2v51.2h307.2v-51.2z m0-96H435.2v-51.2h307.2V448z m179.2-166.4V0H102.4V281.6h51.2v384h153.6V768h563.2v-486.4h51.2zM358.4 716.8v-435.2h38.4c19.2-44.8 64-76.8 115.2-76.8s96 32 115.2 76.8h192V716.8H358.4zM204.8 281.6h102.4V614.4H204.8v-332.8z m665.6-51.2"  horiz-adv-x="1024" />

    
    <glyph glyph-name="guanbi" unicode="&#60266;" d="M548.992 392.256L885.44 728.672a31.968 31.968 0 1 1-45.248 45.248L503.744 437.504 167.328 773.92a31.968 31.968 0 1 1-45.248-45.248l336.416-336.416L122.08 55.84a31.968 31.968 0 1 1 45.248-45.248l336.416 336.416L840.16 10.56a31.968 31.968 0 1 1 45.248 45.248L548.992 392.256z"  horiz-adv-x="1024" />

    
    <glyph glyph-name="fangxiang1" unicode="&#58880;" d="M133.4 396.8L878.6 14.100000000000023l-185.7 371.8L891.5 753l-758.1-356.2z m0 0"  horiz-adv-x="1024" />

    
    <glyph glyph-name="fangxiang2" unicode="&#58881;" d="M524.8 762.6L142.1 17.399999999999977l371.8 185.7L881 4.5l-356.2 758.1z m0 0"  horiz-adv-x="1024" />

    
    <glyph glyph-name="icon_shezhi" unicode="&#60301;" d="M482.88 784l-17.28-90.688-20.64-4.512a309.696 309.696 0 0 1-99.776-41.088l-18.688-11.84-73.28 55.04-44.64-44.64 51.904-76.416-11.392-17.76a310.016 310.016 0 0 1-41.568-99.584l-4.8-21.6-90.72-12.896v-63.104l90.688-17.312 4.512-20.64a309.984 309.984 0 0 1 41.088-99.776l11.84-18.688-55.04-73.28 44.64-44.64 76.416 51.904 17.76-11.392a310.016 310.016 0 0 1 99.584-41.568l21.6-4.8 12.896-90.72h63.104l17.312 90.688 20.64 4.512a309.984 309.984 0 0 1 99.776 41.088l18.688 11.84 73.28-55.04 44.64 44.64-51.904 76.416 11.392 17.76a310.016 310.016 0 0 1 41.568 99.584l4.8 21.6 90.72 12.896V413.12l-90.688 17.312-4.512 20.64a309.984 309.984 0 0 1-41.088 99.776l-11.84 18.688 55.04 73.28-44.64 44.64-76.416-51.904-17.76 11.392a310.144 310.144 0 0 1-99.584 41.568l-21.6 4.8-12.896 90.72H482.88zM410.56 746.144l19.424 101.856h171.584l14.624-102.624c28-8.064 54.848-19.328 80.128-33.568l85.792 58.304 121.344-121.344-62.272-82.88c14.08-25.408 25.152-52.352 32.96-80.416l101.888-19.424v-171.584l-102.624-14.624a373.92 373.92 0 0 0-33.568-80.128l58.304-85.792-121.344-121.344-82.88 62.272c-25.408-14.08-52.352-25.152-80.416-32.96l-19.424-101.888h-171.584l-14.624 102.624a373.92 373.92 0 0 0-80.128 33.568L241.92-2.112l-121.344 121.344 62.272 82.88a373.824 373.824 0 0 0-32.96 80.416L48 301.952v171.584l102.624 14.624c8.064 27.968 19.328 54.848 33.568 80.128L125.888 654.08l121.344 121.344 82.88-62.272a373.856 373.856 0 0 0 80.416 32.96zM512 192a192 192 0 1 0 0 384 192 192 0 0 0 0-384z m0 64a128 128 0 1 1 0 256 128 128 0 0 1 0-256z"  horiz-adv-x="1024" />

    
    <glyph glyph-name="shuaxin" unicode="&#60424;" d="M960 480V704l-73.056-73.056a447.712 447.712 0 0 1-373.6 201.088C265.92 832.032 65.312 631.456 65.312 384S265.92-64.032 513.344-64.032a448.064 448.064 0 0 1 415.232 279.488 38.368 38.368 0 1 1-71.136 28.896 371.36 371.36 0 0 0-344.096-231.584C308.32 12.768 142.112 178.976 142.112 384S308.32 755.232 513.344 755.232c132.448 0 251.936-70.08 318.016-179.84L736 480h224z"  horiz-adv-x="1024" />

    
    <glyph glyph-name="baocun" unicode="&#60425;" d="M925.248 539.072l-258.176 258.176a64 64 0 0 1-45.248 18.752H144a64 64 0 0 1-64-64v-736a64 64 0 0 1 64-64h736a64 64 0 0 1 64 64V493.824a64 64 0 0 1-18.752 45.248zM288 752h192V640H288V752z m448-736H288V160h448v-144z m144 0H800V192a32 32 0 0 1-32 32H256a32 32 0 0 1-32-32v-176H144v736H224V608a32 32 0 0 1 32-32h256a32 32 0 0 1 32 32V752h77.824l258.176-258.176V16z"  horiz-adv-x="1024" />

    
    <glyph glyph-name="gangweizhize" unicode="&#58922;" d="M329.46875-35.71875H210.3125c-36.09375 0-65.625 29.53125-65.625 65.53125V738.09375c0 36.09375 29.53125 65.53125 65.625 65.53125h603.28125c36.09375 0 65.625-29.53125 65.625-65.53125v-404.53125l-52.5 22.59375V738.09375c0 7.21875-6 13.125-13.125 13.125H210.3125c-7.21875 0-13.125-6.09375-13.125-13.125v-708.1875c0-7.03125 6-13.125 13.125-13.125h119.25v-52.5zM280.0625 409.3125h177.65625v-48.65625H280.0625zM280.0625 542.53125h159.28125v-51.9375H280.0625zM280.0625 666.5625h460.96875v-48.65625H280.0625zM879.3125-35.71875H383.5625V137.34375c0 68.4375 0 123.9375 82.59375 123.9375h22.78125l128.53125-260.90625L569.46875 240.5625l61.96875 61.96875c-68.4375 0-123.9375 55.5-123.9375 123.9375s55.5 123.9375 123.9375 123.9375c68.4375 0 123.9375-55.5 123.9375-123.9375s-55.5-123.9375-123.9375-123.9375l61.96875-61.96875-48.09375-240.1875 128.53125 260.90625h22.875c82.59375 0 82.59375-55.5 82.59375-123.9375v-173.0625z"  horiz-adv-x="1024" />

    
    <glyph glyph-name="fangxiang5" unicode="&#58882;" d="M499.2 5.399999999999977L881.9 750.6l-371.8-185.7L143 763.5l356.2-758.1z m0 0"  horiz-adv-x="1024" />

    
    <glyph glyph-name="setting-fill" unicode="&#59505;" d="M512.5 505.4c-29.9 0-57.9-11.6-79.1-32.8-21.1-21.2-32.8-49.2-32.8-79.1 0-29.9 11.7-57.9 32.8-79.1 21.2-21.1 49.2-32.8 79.1-32.8 29.9 0 57.9 11.7 79.1 32.8 21.1 21.2 32.8 49.2 32.8 79.1 0 29.9-11.7 57.9-32.8 79.1-21.2 21.2-49.2 32.8-79.1 32.8zM924.8 269.9l-65.4 55.9c3.1 19 4.7 38.4 4.7 57.7s-1.6 38.8-4.7 57.7l65.4 55.9c10.1 8.6 13.8 22.6 9.3 35.2l-0.9 2.6c-18.1 50.4-44.8 96.8-79.6 137.7l-1.8 2.1c-8.6 10.1-22.5 13.9-35.1 9.5l-81.2-28.9c-30 24.6-63.4 44-99.6 57.5l-15.7 84.9c-2.4 13.1-12.7 23.3-25.8 25.7l-2.7 0.5c-52 9.4-106.8 9.4-158.8 0l-2.7-0.5c-13.1-2.4-23.4-12.6-25.8-25.7l-15.8-85.3c-35.9-13.6-69.1-32.9-98.9-57.3l-81.8 29.1c-12.5 4.4-26.5 0.7-35.1-9.5l-1.8-2.1c-34.8-41.1-61.5-87.4-79.6-137.7l-0.9-2.6c-4.5-12.5-0.8-26.5 9.3-35.2l66.2-56.5c-3.1-18.8-4.6-38-4.6-57 0-19.2 1.5-38.4 4.6-57l-66-56.5c-10.1-8.6-13.8-22.6-9.3-35.2l0.9-2.6c18.1-50.3 44.8-96.8 79.6-137.7l1.8-2.1c8.6-10.1 22.5-13.9 35.1-9.5l81.8 29.1c29.8-24.5 63-43.9 98.9-57.3l15.8-85.3c2.4-13.1 12.7-23.3 25.8-25.7l2.7-0.5c26.1-4.7 52.7-7.1 79.4-7.1 26.7 0 53.4 2.4 79.4 7.1l2.7 0.5c13.1 2.4 23.4 12.6 25.8 25.7l15.7 84.9c36.2 13.6 69.6 32.9 99.6 57.5l81.2-28.9c12.5-4.4 26.5-0.7 35.1 9.5l1.8 2.1c34.8 41.1 61.5 87.4 79.6 137.7l0.9 2.6c4.3 12.4 0.6 26.3-9.5 35z m-412.3-52.2c-97.1 0-175.8 78.7-175.8 175.8s78.7 175.8 175.8 175.8 175.8-78.7 175.8-175.8-78.7-175.8-175.8-175.8z"  horiz-adv-x="1024" />

    
    <glyph glyph-name="baohu2" unicode="&#59040;" d="M23.296052 641.229789c1.349754 24.667914 2.094445 49.428914 4.002718 74.00374A63.671143 63.671143 0 0 0 86.687935 772.621336c27.600137 1.861729 55.339904 2.234075 82.846955 5.119755A704.012945 704.012945 0 0 1 473.834549 883.859663c18.896553 11.868524 38.398167 15.638526 59.714968 8.610498 5.585188-1.954816 11.077289-4.793953 16.103959-8.005436a717.277766 717.277766 0 0 1 270.183468-102.115853c36.676068-6.05062 73.724481-8.796671 110.959068-9.35519 39.189402-0.605062 64.788181-26.064211 67.534231-64.974354 3.723459-51.662989 3.16494-103.093261-1.722099-154.61662-17.220996-178.679472-77.122137-340.510294-194.550715-479.348759a723.607646 723.607646 0 0 0-261.200624-195.714295 67.487688 67.487688 0 0 0-58.039412 0.558519 728.541229 728.541229 0 0 0-240.954318 173.420086C153.058586 148.942011 93.715964 261.576636 58.529279 386.917563A979.409255 979.409255 0 0 0 23.296052 641.229789z m68.372009 66.836082c-0.698148-12.24087-1.7221-24.155938-2.001359-36.210635a915.13305 915.13305 0 0 1 11.821981-178.167497c15.591983-94.156961 45.472739-183.566512 93.13301-266.971985 73.212506-128.226607 175.840335-225.641594 311.653489-287.869897 3.770002-1.861729 8.238152-1.861729 12.008154 0 123.153395 56.084596 220.289123 141.910318 292.012245 255.243091 96.204863 152.0102 131.85698 319.28658 123.94463 496.9421-0.232716 5.678274-1.070494 11.310006-1.489383 17.174453l-5.864448 0.465432c-40.958045 0.465432-81.729917 4.049261-122.129443 10.704944a777.877056 777.877056 0 0 0-286.939033 109.004252c-3.770002 2.466791-6.516053 2.606421-10.704943 0.13963-16.290132-9.774079-32.580263-19.734331-49.522001-28.577545A774.572486 774.572486 0 0 0 146.077101 710.718836c-17.732972-1.117038-35.512487-1.861729-54.362496-2.699508H91.714605z m355.962648-405.065758c2.420248 2.699508 3.909632 4.840496 5.585188 6.609139l228.620361 225.967397c8.377782 8.424325 17.732972 13.404451 29.880756 11.728895 12.659759-1.861729 21.59606-8.796671 26.06421-20.479023a30.671991 30.671991 0 0 0-5.864447-32.487176c-1.7221-1.954816-3.723459-3.863088-5.631732-5.678275L474.299981 239.4686c-18.477664-18.151861-35.791746-18.151861-54.362496 0.186173-41.563107 40.958045-83.079671 81.962634-124.549692 123.013765-13.544081 13.497538-14.521489 32.487177-2.699508 45.519282a32.719893 32.719893 0 0 0 47.474098 1.023951c20.01359-19.361985 39.608291-39.003229 59.296079-58.504844l48.172247-47.706814z"  horiz-adv-x="1024" />

    
    <glyph glyph-name="dangan1" unicode="&#58928;" d="M57.6 864v-166.4s166.4-64 294.4-83.2c19.2 64 83.2 115.2 153.6 115.2 70.4 0 134.4-51.2 153.6-115.2 128 19.2 300.8 76.8 300.8 76.8V864H57.6zM601.6 569.6c0 51.2-38.4 89.6-89.6 89.6-51.2 0-89.6-38.4-89.6-89.6 0-51.2 38.4-89.6 89.6-89.6 51.2 0 89.6 38.4 89.6 89.6zM665.6 556.8C659.2 480 595.2 416 512 416c-83.2 0-147.2 64-160 140.8C224 576 57.6 633.6 57.6 633.6v-729.6H960V640c6.4 0-166.4-64-294.4-83.2zM256 288h256v-64H256v64z m0-128h256v-64H256v64z m512-192H256v64h512v-64z m-6.4 243.2l-25.6-32-25.6-25.6-25.6-25.6c-6.4-6.4-6.4-6.4-12.8-6.4l-12.8-12.8c-6.4-6.4-6.4-6.4-12.8-6.4s-6.4-6.4-19.2-6.4c-6.4-6.4-12.8-6.4-25.6-6.4-6.4 0-19.2-6.4-25.6-6.4-6.4 0-12.8-6.4-19.2-6.4-6.4 0-12.8 0-12.8 6.4s-6.4 6.4 0 19.2c0 6.4 0 6.4 6.4 19.2 0 6.4 6.4 12.8 6.4 19.2 6.4 6.4 6.4 12.8 6.4 19.2 12.8 0 12.8 6.4 12.8 6.4l6.4 12.8c0 6.4 6.4 6.4 6.4 12.8l12.8 12.8c6.4 6.4 12.8 12.8 19.2 25.6l32 32 32 32L774.4 384l76.8-76.8-89.6-96z m153.6 160v-12.8c0-6.4-6.4-6.4-6.4-12.8l-12.8-6.4-6.4-6.4-6.4-6.4-76.8 76.8 12.8 12.8 12.8 12.8c6.4 6.4 6.4 6.4 12.8 6.4h25.6c6.4 0 6.4 0 6.4-6.4 6.4-6.4 12.8-6.4 19.2-19.2l19.2-19.2V371.2z"  horiz-adv-x="1024" />

    
    <glyph glyph-name="huishou" unicode="&#58916;" d="M986.04032 713.41568h-243.66592v46.3872c0 38.44608-31.12448 69.63712-69.57056 69.63712H347.99616c-38.44608 0-69.57056-31.19104-69.57056-69.63712v-46.3872H34.816a34.78016 34.78016 0 0 1-34.816-34.816 34.816 34.816 0 0 1 34.816-34.816h104.3968v-556.78464c0-76.89216 62.31552-139.2128 139.20768-139.2128h463.95392c76.89216 0 139.2128 62.31552 139.2128 139.2128V643.78368h104.45312c19.18976 0 34.75456 15.62624 34.75456 34.816 0 19.25632-15.5648 34.816-34.75456 34.816z m-638.04416 46.3872h324.80768v-46.3872H347.99616v46.3872z m464.01536-533.59616v-139.20768c0-38.38464-31.24736-69.63712-69.63712-69.63712H278.42048c-38.38464 0-69.63712 31.25248-69.63712 69.63712V643.78368h603.22816v-417.57696zM347.99616 504.57088a23.168 23.168 0 0 1-23.1936-23.18848v-348.00128c0-12.8 10.39872-23.1936 23.1936-23.1936s23.1936 10.3936 23.1936 23.1936V481.3824a23.168 23.168 0 0 1-23.1936 23.18848zM510.39744 504.57088a23.16288 23.16288 0 0 1-23.18848-23.18848v-348.00128c0-12.8 10.3936-23.1936 23.18848-23.1936s23.1936 10.3936 23.1936 23.1936V481.3824a23.168 23.168 0 0 1-23.1936 23.18848zM672.80384 504.57088c-12.8 0-23.1936-10.33216-23.1936-23.18848v-348.00128c0-12.8 10.3936-23.1936 23.1936-23.1936a23.20384 23.20384 0 0 1 23.18848 23.1936V481.3824a23.16288 23.16288 0 0 1-23.18848 23.18848z"  horiz-adv-x="1024" />

    
    <glyph glyph-name="fangxiang3" unicode="&#58909;" d="M880.841905 370.438294L155.685948 742.868274l180.741656-361.726571L143.158095 23.915429l737.68381 346.522865z m0 0"  horiz-adv-x="1024" />

    
    <glyph glyph-name="jiantou-shang" unicode="&#59177;" d="M882.5 363.5c0-16.2-5.9-30.4-17.6-42.8L829.2 285c-12-12-26.5-18.1-43.3-18.1-17.1 0-31.4 6-42.8 18.1L603.3 424.5v-334.7c0-16.5-5.9-29.9-17.8-40.2-11.9-10.3-26.2-15.5-43-15.5h-60.9c-16.8 0-31.1 5.2-43 15.5s-17.8 23.7-17.8 40.2V424.5L280.9 285c-11.4-12-25.7-18.1-42.8-18.1s-31.4 6-42.8 18.1l-35.7 35.7c-12 12-18.1 26.3-18.1 42.8 0 16.8 6 31.2 18.1 43.3l309.5 309.5c11.1 11.7 25.4 17.6 42.8 17.6 17.1 0 31.5-5.9 43.3-17.6l309.5-309.5c11.8-12.3 17.8-26.8 17.8-43.3z"  horiz-adv-x="1024" />

    
    <glyph glyph-name="baohuduixiangshaixuan" unicode="&#58906;" d="M787.568492 418.6958a267.000336 267.000336 0 1 1-329.007452 0 445.485465 445.485465 0 0 1-280.550713-413.185462v-88.979908A44.523628 44.523628 0 0 1 222.513751-127.999933h801.061622a44.449545 44.449545 0 0 1 44.537098 44.543832v88.973174a445.404647 445.404647 0 0 1-280.543979 413.178727zM445.037603 628.645818a178.013694 178.013694 0 1 0 178.013694-178.027163A178.195533 178.195533 0 0 0 445.037603 628.645818z m534.068021-667.638904H267.023909v44.510159a356.040857 356.040857 0 1 0 712.081715 0v-44.510159z m-653.947098 442.239301a40.62419 40.62419 0 0 1 1.838595 8.330923c0.404087 1.697164 0.882256 3.300042 1.144913 5.091493a43.466267 43.466267 0 0 1-0.370413 10.304213 38.058239 38.058239 0 0 1-0.188574 5.387823c-0.255922 1.030421-0.996747 1.791451-1.293078 2.821873a43.54035 43.54035 0 0 1-2.619829 5.66395A44.031989 44.031989 0 0 1 317.123934 451.191111c-0.437761 0.424291-0.882256 0.734091-1.346955 1.178587a42.260742 42.260742 0 0 1-13.974668 9.731756A133.517005 133.517005 0 0 0 324.619744 713.908128a44.537097 44.537097 0 0 1-20.830673 86.595796 222.355483 222.355483 0 0 1-112.470819-365.698532A354.640023 354.640023 0 0 1 0.003368 118.863413v-68.842917a44.503423 44.503423 0 1 1 89.000113 0v68.842917a265.639911 265.639911 0 0 0 201.49787 258.615536 43.971376 43.971376 0 0 1 34.623502 25.740327z m729.49112 31.552443a222.335278 222.335278 0 0 1-106.854013 364.270758 44.503423 44.503423 0 1 1-23.113763-85.955992 133.550679 133.550679 0 0 0 19.578004-250.937887 43.829946 43.829946 0 0 1-14.196915-9.846248c-0.370413-0.404087-0.7745-0.673478-1.104504-1.050626a43.621167 43.621167 0 0 1-6.674167-10.52646 40.678069 40.678069 0 0 1-2.545746-5.569663c-0.29633-0.996747-1.07083-1.791451-1.346956-2.821873a37.862931 37.862931 0 0 1-0.188574-5.387823 41.836451 41.836451 0 0 1-0.330004-10.304213 45.796501 45.796501 0 0 1 1.104504-5.091493 40.449086 40.449086 0 0 1 1.845329-8.337657 43.984845 43.984845 0 0 1 34.623502-25.733593 265.646646 265.646646 0 0 0 201.49787-258.615536v-68.842917a44.503423 44.503423 0 1 1 89.000112 0v68.822713a354.586145 354.586145 0 0 1-191.314883 315.91504z"  horiz-adv-x="1246" />

    
    <glyph glyph-name="outbox" unicode="&#59123;" d="M191.992 63.992l127.994667 191.992001h383.984001l127.994667-191.992001z m191.992001 575.976001a64.039998 64.039998 0 0 0-59.133536 39.486355 65.341277 65.341277 0 0 0-4.543811 18.431232 63.933336 63.933336 0 0 0 18.431232 51.389859l127.994667 127.994667A63.826674 63.826674 0 0 0 511.978668 896.021332c16.383317 0 32.766635-6.271739 45.246114-18.751218l127.994667-127.994667a64.423982 64.423982 0 0 0 13.887422-69.821091A64.039998 64.039998 0 0 0 639.973334 639.968001h-63.997333v-191.992c0-35.390525-28.606808-63.997333-63.997333-63.997333a63.997333 63.997333 0 0 0-63.997334 63.997333v191.992h-63.997333zM831.965335 895.957335a191.992 191.992 0 0 0 191.992-191.992v-639.973335a191.992 191.992 0 0 0-191.992-191.992H191.992a191.992 191.992 0 0 0-191.992 191.992V703.965335a191.992 191.992 0 0 0 191.992 191.992h112.443315l-56.253656-56.189659A191.458689 191.458689 0 0 1 202.871547 767.962668H191.992C156.665472 767.962668 127.994667 739.291863 127.994667 703.965335v-639.973335a63.997333 63.997333 0 0 1 63.997333-63.997333h639.973335c35.390525 0 63.997333 28.606808 63.997333 63.997333V703.965335a63.997333 63.997333 0 0 1-63.997333 63.997333h-10.943544a192.461314 192.461314 0 0 1-45.310112 71.805008L719.52202 895.957335H831.965335z"  horiz-adv-x="1024" />

    
    <glyph glyph-name="outbox-" unicode="&#59126;" d="M832-128H192a192 192 0 0 0-192 192v192l256 256h64v-128h-10.944L128 192h192v-64a64 64 0 0 1 64-64h256c35.392 0 64 28.608 64 64v64h192l-180.992 192H704v128h64l256-256v-192a192 192 0 0 0-192-192z m-192 768h-64v-192a64 64 0 1 0-128 0v192h-64a64.042667 64.042667 0 0 0-59.136 39.488 64.213333 64.213333 0 0 0 13.888 69.76l128 128C479.232 889.728 495.616 896 512 896s32.768-6.272 45.248-18.752l128-128a64.106667 64.106667 0 0 0 13.888-69.76A64.042667 64.042667 0 0 0 640 640z"  horiz-adv-x="1024" />

    
    <glyph glyph-name="bangonglianluo" unicode="&#58908;" d="M749.1 0.2H273.7c-18.9 0-36.5-23.8-36.5-23.8v-35.6h548.4v35.6c0 19.6-17.6 23.8-36.5 23.8z m105 831.9H168.6c-56.8 0-102.8-47.9-102.8-107V226c0-59 46-107 102.8-107h253.6v-29.7c0-19.7 10.8-29.7 29.7-29.7h118.8c18.9 0 29.7 12.4 29.7 29.7V119H854c56.8 0 102.8 47.9 102.8 107V725.1c0.1 59-45.9 107-102.7 107zM154.9 267.5c-18.9 0-29.7 10.1-29.7 29.7v416c0 19.6 40.5 59.4 59.4 59.4h653.6c18.9 0 56-16 59.4-59.4v-415.9c0-19.6-10.9-29.7-29.7-29.7h-713v-0.1z m699.2-114.2c-19.6 0-35.5 16.5-35.5 37 0 20.4 15.9 37 35.5 37 19.7 0 35.6-16.6 35.6-37-0.1-20.5-16-37-35.6-37zM589.1 532c10.5 16 16.2 35 16.2 54.5 0 53.5-42.1 97-93.9 97-51.8 0-93.9-43.5-93.9-97 0-19.5 5.7-38.5 16.2-54.5-53.1-26.4-91.1-78.8-100.2-139.2-0.1-0.4-0.1-0.9-0.1-1.4-0.2-1.4-0.3-2.8-0.3-4.2 0-16.7 13.2-30.4 29.4-30.4 11.1-0.1 21.3 6.5 26.3 16.9h1.5l0.9 7v0.3c0.2 1.1 0.4 2.2 0.5 3.3 9.5 60.9 59.8 105.1 119.6 105.1 59.9 0 110.1-44.2 119.6-105.1 0.1-1.1 0.2-2.3 0.5-3.3l1-7.3h1.4c5-10.4 15.2-16.9 26.3-16.9 16.2 0 29.4 13.6 29.4 30.4v0.1c0.1 1 0.1 1.9 0 2.9-8.2 61.7-46.4 115.1-100.4 141.8z m-77.7 18.3c-19.4 0-35.2 16.3-35.2 36.3 0 20 15.8 36.3 35.2 36.3 19.4 0 35.1-16.3 35.1-36.3 0-20.1-15.7-36.3-35.1-36.3z"  horiz-adv-x="1024" />

    
    <glyph glyph-name="zhiding" unicode="&#59131;" d="M80.96 446.805333l37.696 37.717334 19.626667-19.605334-37.717334-37.717333zM197.205333 354.56l116.16 116.138667 13.568-13.568-116.16-116.16zM220.565333 330.837333l116.16 116.16 13.568-13.589333-116.16-116.138667zM173.845333 378.261333l116.16 116.16 13.568-13.589333-116.16-116.138667zM245.354667 308.522667l116.202666 116.096 13.568-13.589334-116.202666-116.096zM339.2 896L0 550.4V-128L1024 896H339.2z m-115.2-283.733333l46.933333-46.933334-14.933333-12.8-4.266667 4.266667-140.8-140.8 4.266667-4.266667-14.933333-14.933333-46.933334 46.933333 170.666667 168.533334z m2.133333-375.466667l-12.8 12.8 29.866667 29.866667L149.333333 375.466667l64 64-12.8 12.8L108.8 362.666667l-10.666667 10.666666 89.6 89.6-10.666666 10.666667 14.933333 14.933333 10.666667-10.666666 91.733333 91.733333 10.666667-10.666667-91.733334-91.733333 12.8-12.8 68.266667 68.266667 96-96 27.733333 27.733333 12.8-12.8-204.8-204.8z m232.533334 236.8l-17.066667-17.066667c-6.4 6.4-14.933333 10.666667-21.333333 14.933334 8.533333 4.266667 14.933333 10.666667 21.333333 17.066666 6.4 6.4 6.4 12.8 0 19.2l-136.533333 136.533334-34.133334-34.133334-14.933333 17.066667L332.8 704l14.933333-14.933333-25.6-27.733334 138.666667-138.666666c14.933333-14.933333 14.933333-32-2.133333-49.066667z m-81.066667 200.533333l38.4 38.4-21.333333 34.133334-46.933334-46.933334-14.933333 14.933334 123.733333 123.733333 12.8-17.066667-59.733333-59.733333 21.333333-34.133333 57.6 57.6 98.133334-98.133334-14.933334-14.933333-83.2 83.2-78.933333-78.933333 85.333333-85.333334-14.933333-14.933333-102.4 98.133333z m138.666667-162.133333c-6.4 2.133333-14.933333 4.266667-25.6 4.266667 19.2 34.133333 25.6 61.866667 23.466666 85.333333-2.133333 21.333333-17.066667 44.8-42.666666 70.4L448 695.466667l14.933333 14.933333 23.466667-23.466667c17.066667-17.066667 29.866667-34.133333 38.4-49.066666 38.4 8.533333 74.666667 14.933333 106.666667 19.2l2.133333-25.6c-34.133333-2.133333-68.266667-8.533333-100.266667-14.933334 2.133333-4.266667 2.133333-8.533333 2.133334-12.8 6.4-23.466667 0-55.466667-19.2-91.733333zM183.765333 549.034667l37.696 37.717333 19.626667-19.584-37.696-37.738667zM132.288 497.962667l37.76 37.674666 19.584-19.626666-37.738667-37.674667z"  horiz-adv-x="1024" />

    
    <glyph glyph-name="yanjing" unicode="&#58910;" d="M659.911111 480.711111c0-34.133333-28.444444-62.577778-56.888889-62.577778-34.133333 0-56.888889 28.444444-56.888889 62.577778 0 34.133333 28.444444 62.577778 56.888889 62.577778h11.377778c-28.444444 17.066667-62.577778 28.444444-102.4 28.444444-102.4 0-182.044444-85.333333-182.044444-187.733333 0-102.4 79.644444-187.733333 182.044444-187.733333 102.4 0 182.044444 85.333333 182.044444 187.733333 0 39.822222-11.377778 79.644444-34.133333 108.088889v-11.377778z m352.711111-79.644444C927.288889 560.355556 728.177778 725.333333 512 725.333333 295.822222 725.333333 96.711111 560.355556 11.377778 401.066667L0 384l11.377778-17.066667C96.711111 207.644444 295.822222 42.666667 512 42.666667c216.177778 0 415.288889 164.977778 500.622222 324.266666L1024 384l-11.377778 17.066667z m-500.622222-284.444445c-182.044444 0-347.022222 130.844444-426.666667 267.377778C164.977778 514.844444 329.955556 651.377778 512 651.377778s347.022222-130.844444 426.666667-267.377778c-79.644444-130.844444-244.622222-267.377778-426.666667-267.377778z"  horiz-adv-x="1024" />

    
    <glyph glyph-name="more1" unicode="&#58884;" d="M384 768v-256H128V768h256m0 64H128a64 64 0 0 1-64-64v-256a64 64 0 0 1 64-64h256a64 64 0 0 1 64 64V768a64 64 0 0 1-64 64zM384 256v-256H128v256h256m0 64H128a64 64 0 0 1-64-64v-256a64 64 0 0 1 64-64h256a64 64 0 0 1 64 64v256a64 64 0 0 1-64 64zM768 128m-192 0a192 192 0 1 1 384 0 192 192 0 1 1-384 0ZM768 256a128 128 0 1 0-128-128 128 128 0 0 0 128 128m0 64a192 192 0 1 1 192-192 192 192 0 0 1-192 192zM896 768v-256h-256V768h256m0 64h-256a64 64 0 0 1-64-64v-256a64 64 0 0 1 64-64h256a64 64 0 0 1 64 64V768a64 64 0 0 1-64 64z"  horiz-adv-x="1024" />

    
    <glyph glyph-name="bangongyongpin" unicode="&#58912;" d="M447.68 256h384v-64H447.68zM447.68 64h384v-64H447.68zM383.68 832h512V704h64v170.625c0 11.875-9.5 21.375-21.375 21.375H340.93c-11.75 0-21.25-9.5-21.25-21.375V704h64v128z m0 0M1109.055 704h-938.625C146.805 704 127.68 663.5 127.68 640v-469.375c0-23.5 19.125-42.625 42.75-42.625H319.68v-234.625c0-11.875 9.5-21.375 21.25-21.375h597.375c11.75 0 21.375 9.5 21.375 21.375V128H1108.93c23.5 0 42.625 19.125 42.625 42.625V640c0.125 23.5-19 64-42.5 64zM261.43 477.375c-29.5 0-53.25 23.875-53.25 53.375S232.055 584.125 261.43 584.125c29.5 0 53.375-23.875 53.375-53.375s-23.875-53.375-53.375-53.375zM895.68-64H383.68V320h512V-64z m0 0"  horiz-adv-x="1677" />

    
    <glyph glyph-name="chaxunshebaojiaofeichuanshuzhuangtaigeren" unicode="&#59024;" d="M997.62391996 29.40498630000002l-216.81042043 170.30615635c39.59146809 63.47203613 60.64407412 137.15615727 60.64407412 214.2966764 0 108.09099222-41.94810307 209.89762442-118.30307724 286.56681659-76.04075616 76.66919215-177.37606134 119.24573123-284.99572655 119.87416722h-2.51374401c-54.2026051 0-106.99122922-10.52630302-156.7947823-31.26469105-49.01800811-20.42417004-93.16563717-49.80355309-130.87179727-87.19549518-76.98341015-76.35497415-119.55994924-178.16160635-119.87416723-286.56681657-0.31421799-109.03364622 41.94810307-211.46871442 118.93151322-288.60923356 76.51208316-76.66919215 178.00449735-118.93151324 285.93838057-119.08862224h0.15710901c104.79170321 0 203.29904641 38.49170507 278.86847554 108.56231921l219.00994643-172.03435534c4.08483399-3.14217999 10.05497602-2.51374401 13.19715603 1.57109l55.14525912 70.22772315c3.14217999 4.24194301 2.35663501 10.21208501-1.72819901 13.35426502zM435.01658985 48.88650235c-97.87890718 0.15710901-189.94478137 38.80592308-259.22985052 108.7194282-68.65663314 69.28506914-106.20568422 160.56539833-105.57724819 257.03032451 1.25687199 201.2566294 165.12155934 364.64998971 365.59264372 364.64998973h0.31421799c98.35023421-0.15710901 190.25899937-38.33459609 259.22985051-107.61966522 68.81374213-69.28506914 106.67701121-161.82227031 106.51990221-260.64383153 0-68.49952413-19.48151604-134.17108626-55.77369511-191.20165337-1.09976302-0.628436-2.042417-1.41398101-2.827962-2.51374399l-47.1327001-59.85852912-1.09976301-1.099763c-69.59928714-69.28506914-161.50805231-107.46255621-259.07274151-107.46255621h-0.94265399zM442.71493086 195.94052662c-58.60165712 0.94265401-103.53483121 1.09976302-148.31089628 2.82796202-17.91042605 0.78554501-36.13507007 3.92772502-53.25995112 8.955213-20.42417004 5.81303301-22.30947806 16.18222702-22.62369605 31.73601808-2.042417 87.98104016 70.85615914 162.29359733 161.97937933 161.66516133 34.56398006-0.31421799 68.97085115 0 103.53483119 0 82.48222515 0 149.88198629-59.07298412 160.25118033-140.76966429 1.25687199-9.58364903 0.94265401-19.32440705 0.78554501-28.90805606-0.15710901-10.52630302-6.91279601-17.59620803-15.86800904-20.42417003-15.08246403-4.71327001-30.47914606-9.74075802-46.03293709-10.52630304-51.37464309-2.82796201-102.74928621-3.61350702-140.45544628-4.55616101zM426.68981283 687.37747961c68.97085115 0 124.43032825-54.2026051 124.74454624-122.23080224 0.31421799-67.87108813-55.61658611-122.85923823-124.90165523-122.85923826-68.97085115 0-124.58743725 54.51682311-124.58743726 122.23080224 0 68.34241515 55.14525911 122.70212926 124.74454625 122.85923826z"  horiz-adv-x="1024" />

    
    <glyph glyph-name="shangyimian" unicode="&#58917;" d="M837.9 410.6l-303.1 353c-12 13.9-33.5 13.9-45.5 0l-303.2-353c-16.7-19.5-2.9-49.5 22.8-49.5H352v-303.3c0-35.3 28.7-64 64-64h192c35.3 0 64 28.7 64 64V361h143.2c25.6 0 39.4 30.1 22.7 49.6z"  horiz-adv-x="1024" />

    
    <glyph glyph-name="baohudun" unicode="&#58936;" d="M951.608 759.26L519.734 893.525c-9.9 3.094-22.274 3.094-32.174 0L56.305 759.26c-25.368-9.9-41.455-32.174-41.455-54.448 0-604.5 300.703-748.665 464.048-825.387 6.187-3.094 16.087-6.188 22.274-6.188 9.9 0 16.087 3.094 22.275 6.188 163.345 76.722 464.048 220.887 464.048 825.387 6.187 22.274-9.9 44.549-35.887 54.448zM366.288 199.31c0-16.087-9.899-25.368-29.08-29.08-16.087 0-25.368 9.9-29.08 25.367V407.202c-25.368-12.993-38.361-6.187-44.549 19.181 0 9.9 3.094 25.368 12.994 41.455 22.274 41.455 38.361 92.81 51.354 156.539 3.094 16.087 16.088 22.274 32.175 19.18s25.367-12.993 25.367-29.08c-9.9-41.455-16.087-73.629-19.18-92.81V199.31z m358.246 44.548c12.993-12.993 12.993-22.274 6.187-35.267-16.087-16.087-32.174-16.087-57.542 0-25.368 16.087-57.542 44.548-92.81 89.716v-98.997c0-16.087-9.899-29.08-29.08-29.08s-29.08 9.9-29.08 25.367V302.018c-32.174-41.455-60.636-73.629-92.81-92.81-16.087-12.993-32.174-12.993-48.26 0-12.994 12.994-9.9 25.368 6.187 41.455 44.548 35.268 82.91 76.723 115.084 121.272H409.6c-19.18 0-32.174 9.9-32.174 29.08 0 16.087 12.993 25.368 32.174 29.08h111.99v19.181h-65.585c-38.361-3.094-57.542 9.9-51.355 41.455v92.81c0 29.08 16.087 44.548 51.355 41.455h207.893c32.175 0 48.262-12.994 44.55-44.549v-89.716c3.093-32.174-12.994-44.549-41.456-41.455h-82.91v-25.368h131.171c16.087 0 25.368-9.9 25.368-29.08 0-16.087-9.9-25.368-29.08-29.08H596.457c32.174-38.362 73.629-79.817 128.077-121.89zM650.905 513.005v44.55c0 9.899-3.094 12.992-12.993 12.992H475.185c-9.9 0-16.087-3.093-12.993-12.993v-44.549c0-9.9 3.094-12.993 12.993-12.993h163.346c9.28 3.094 12.374 6.187 12.374 12.993z"  horiz-adv-x="1024" />

    
    <glyph glyph-name="audio-fill" unicode="&#59543;" d="M512 272c93.9 0 170 75.2 170 168V664c0 92.8-76.1 168-170 168s-170-75.2-170-168v-224c0-92.8 76.1-168 170-168zM842 442c0 4.4-3.6 8-8 8h-60c-4.4 0-8-3.6-8-8 0-140.3-113.7-254-254-254S258 301.7 258 442c0 4.4-3.6 8-8 8h-60c-4.4 0-8-3.6-8-8 0-168.7 126.6-307.9 290-327.6V12H326.7c-13.7 0-24.7-14.3-24.7-32v-36c0-4.4 2.8-8 6.2-8h407.6c3.4 0 6.2 3.6 6.2 8v36c0 17.7-11 32-24.7 32H548V113.9c165.3 18 294 158 294 328.1z"  horiz-adv-x="1024" />

    
    <glyph glyph-name="ditu-xing" unicode="&#60483;" d="M496 81.728L246.848-49.28a32 32 0 0 0-46.432 33.728l47.584 277.44-201.6 196.48a32 32 0 0 0 17.76 54.592l278.56 40.48 124.576 252.416a32 32 0 0 0 57.408 0l124.576-252.416 278.56-40.48a32 32 0 0 0 17.728-54.592l-201.568-196.48 47.584-277.44a32 32 0 0 0-46.4-33.728L496 81.728z"  horiz-adv-x="1024" />

    
    <glyph glyph-name="zichan" unicode="&#58885;" d="M85.8112 552.8576h853.504v37.4784a92.16 92.16 0 0 1-81.408 91.4432v-43.7248a39.936 39.936 0 0 0-79.7696 0v66.7648C778.24 763.904 730.4192 811.52 671.4368 811.52H352.6656c-58.88 0-106.7008-47.7184-106.7008-106.7008v-65.3312a41.2672 41.2672 0 1 0-82.5344 0V681.984a86.2208 86.2208 0 0 1-77.6192-85.8112v-43.3152z m0-86.528v-305.7664a204.8 204.8 0 0 1 204.8-204.8h443.904a204.8 204.8 0 0 1 204.8 204.8V466.3296H85.8112z m770.6624 301.4656A176.8448 176.8448 0 0 0 1024 591.1552V128A256 256 0 0 0 768-128h-512A256 256 0 0 0 0 128V595.968A172.032 172.032 0 0 0 164.864 768 148.992 148.992 0 0 0 312.32 896h396.5952c75.264 0 137.4208-55.808 147.456-128.2048z m-204.6976-131.072H370.9952a44.3392 44.3392 0 1 0 0 88.576h280.7808a44.3392 44.3392 0 1 0 0-88.576z m-68.9152-252.3136a31.5392 31.5392 0 0 0 46.7968-0.8192 37.2736 37.2736 0 0 0-0.9216-50.176l-78.6432-81.408h73.4208c18.3296 0 33.0752-15.872 33.0752-35.5328 0-19.6608-14.7456-35.5328-33.0752-35.5328h-85.8112v-35.5328h85.8112c18.3296 0 33.0752-15.872 33.0752-35.5328 0-19.6608-14.7456-35.5328-33.0752-35.5328h-85.8112v-40.1408c0-19.6608-14.848-35.6352-33.0752-35.6352-18.2272 0-33.0752 15.9744-33.0752 35.6352v40.1408h-90.112c-18.2272 0-32.9728 15.872-32.9728 35.5328 0 19.6608 14.7456 35.5328 33.0752 35.5328h90.112v35.5328h-90.112c-18.3296 0-33.0752 15.872-33.0752 35.5328 0 19.6608 14.7456 35.5328 33.0752 35.5328h76.4928l-76.4928 81.92a37.2736 37.2736 0 0 0 0 49.9712A31.4368 31.4368 0 0 0 428.1344 384l75.776-81.3056 78.848 81.7152z"  horiz-adv-x="1024" />

    
    <glyph glyph-name="gongzuo" unicode="&#58913;" d="M1395.75299 537.916093l-433.584505-255.049709c-32.031139-18.837696-71.78785-18.90825-103.889543-0.141106L421.131502 538.198306c-33.865521 19.790164-33.936075 68.718787-0.141106 88.579504l433.584505 255.049709c32.031139 18.837696 71.78785 18.90825 103.889542 0.141106l437.14744-255.473027c33.865521-19.790164 33.936075-68.683511 0.141107-88.579505zM1395.611883 428.170637L1348.164877 455.93331l-45.96539-27.057141L1372.152955 387.990607c0.705532-0.423319 2.363531-1.375787 2.363531-4.12736 0-2.751574-1.657999-3.739318-2.363531-4.162637l-433.584505-255.049709c-8.607487-5.079828-18.48493-7.760849-28.468204-7.760849-9.947997 0-19.754888 2.645744-28.327098 7.655019L444.625708 380.053376c-0.705532 0.423319-2.363531 1.375787-2.363531 4.12736 0 2.751574 1.657999 3.739318 2.363531 4.162637l70.129851 41.238328-46.035944 26.916034-47.658666-28.044885c-33.794968-19.895994-33.724415-68.789341 0.141107-88.579505l437.076886-255.473027c16.01557-9.348295 33.900798-14.040081 51.821304-14.040081 17.991058 0 36.017393 4.727062 52.068239 14.181187l433.584505 255.049709c33.794968 19.895994 33.724415 68.789341-0.141107 88.579504zM1395.611883 229.845677L1348.164877 257.608349l-45.96539-27.05714 69.953468-40.885562c0.705532-0.423319 2.363531-1.375787 2.363531-4.12736 0-2.751574-1.657999-3.739318-2.363531-4.162637l-433.584505-255.049709c-8.607487-5.079828-18.48493-7.760849-28.468204-7.760849-9.947997 0-19.754888 2.645744-28.327098 7.655019l-437.14744 255.473028c-0.705532 0.423319-2.363531 1.375787-2.363531 4.12736 0 2.751574 1.657999 3.739318 2.363531 4.162637l70.129851 41.238328-46.035944 26.916034-47.658666-28.044885c-33.794968-19.895994-33.724415-68.789341 0.141107-88.579504l437.14744-255.473028c16.01557-9.348295 33.900798-14.040081 51.821303-14.040081 17.991058 0 36.017393 4.727062 52.068239 14.181187l433.584505 255.049709c33.724415 19.93127 33.653862 68.824617-0.21166 88.614781z"  horiz-adv-x="2624" />

    
    <glyph glyph-name="bmgangwei" unicode="&#58924;" d="M337.57761211 609.3633810399999C337.57761211 702.68612723 412.51860526 778.33411088 505.84135146 778.33411088S673.39810029 702.68612723 673.39810029 609.3633810399999c0.7069905-93.32274619-74.94099314-168.97072983-167.55674883-168.97072983S337.57761211 516.74762535 337.57761211 609.3633810399999z m98.2716797-604.47687868H179.91873028v50.1963256c0 170.38471083 129.37926176 309.66183961 294.1080486 325.92262113h0.7069905c9.89786702 0.7069905 20.50272455 1.41398101 31.10758208 1.413981h4.9489335c36.76350606 2.82796201 91.90876518 11.31184801 120.18838523 37.47049657l14.13981001 11.31184804c55.14525911 43.83341109 86.95983167 108.87653721 86.9598317 178.86859684 0 125.84430924-101.8066322 227.65094144-226.23696044 227.65094146S280.3113815 735.9146808 280.3113815 610.07037154c0-69.99205964 31.81457257-135.03518578 86.95983167-178.86859684l14.13981003-11.31184804-16.96777203-6.36291451C216.68223638 354.13981004000004 121.94550918 214.15569076999998 121.94550918 55.08282796000003v-79.18293618c0-16.26078154 13.43281952-29.69360106 28.98661056-29.69360105h336.52747866c-23.33068654 12.72582902-42.41943008 33.22855357-51.61030659 58.68021163z m436.92012985 202.19928339h-360.5651557v58.6802116c0 9.19087652 7.77689552 17.67476253 16.96777203 17.67476254h325.92262113c9.19087652 0 16.96777203-7.77689552 16.96777206-17.67476254v-58.6802116z m-197.25034988-51.6103066c0 1.41398101 0 2.1209715 0.7069905 3.5349525h33.22855357c0.7069905-1.41398101 0.7069905-2.1209715 0.70699049-3.5349525 0-9.19087652-7.77689552-17.67476253-16.96777202-17.67476253-9.89786702 0-17.67476253 8.48388603-17.67476254 17.67476253z m197.25034988-137.86314778c0-9.19087652-7.77689552-17.67476253-16.96777203-17.67476254H529.17203799c-9.19087652 0-16.96777203 7.77689552-16.96777203 17.67476254v141.39810028h115.23945172v-3.5349525c0-36.05651557 28.98661055-65.75011664 64.33613563-65.75011663s64.33613563 29.69360106 64.33613564 65.75011663v3.5349525H871.35544066v-141.39810028z m-224.11598893 316.73174461c0 2.1209715 1.41398101 3.5349525 3.53495252 3.53495252h82.01089814c1.41398101 0 3.5349525-1.41398101 3.53495252-3.53495252v-3.5349525h-89.08080318v3.5349525z m206.44122639-3.5349525h-71.40604063v17.67476256c0 21.20971504-16.96777203 38.17748707-37.47049657 38.17748707H638.04857519c-20.50272455 0-37.47049658-16.96777203-37.47049657-38.17748707v-17.67476256h-70.69905012c-35.34952507 0-64.33613563-29.69360106-64.33613564-65.75011662v-247.44667549c0-36.05651557 28.98661055-65.75011664 64.33613564-65.75011664h325.92262113c35.34952507 0 64.33613563 29.69360106 64.33613564 65.75011664v247.44667549c0 36.76350606-28.98661055 65.75011664-65.04312615 65.75011662z"  horiz-adv-x="1024" />

    
    <glyph glyph-name="chuanshuzhushouxuanzhong" unicode="&#59246;" d="M879.64 148.709a52.405 52.405 0 0 0-31.078-10.131h-193.95V276.371a26.328 26.328 0 0 1-13.013 23.231 26.337 26.337 0 0 1-26.632 0 26.34 26.34 0 0 1-13.013-23.231v-137.793H450.836V326.302l30.605-31.176a26.002 26.002 0 0 1 37.238 0c10.284 10.551 10.284 27.373 0 37.924h0.005l-74.477 75.855a25.955 25.955 0 0 1-18.786 7.843l-0.553-0.005c-0.121 0-0.239 0.02-0.366 0.02a26.183 26.183 0 0 1-21.945-12.017l-70.384-71.731c-10.271-10.543-10.271-27.363 0.009-37.906a25.994 25.994 0 0 1 18.616-7.856 26.027 26.027 0 0 1 18.617 7.861l28.759 29.313v-185.85h-165.34l0.005 0.005a52.503 52.503 0 0 0-34.06 12.485c-43.837 37.229-65.745 94.179-58.148 151.185 7.589 57.006 43.641 106.247 95.688 130.701a26.384 26.384 0 0 1 14.662 18.783c23.952 121.827 124.179 214.035 247.583 227.751 123.4 13.72 241.429-54.215 291.557-167.807a26.364 26.364 0 0 1 18.178-15.015c74.363-17.308 131.843-76.325 147.179-151.116 15.33-74.789-14.289-151.663-75.838-196.84z m-481.466-29.816a26.317 26.317 0 0 1 13.066-23.082 26.336 26.336 0 0 1 26.534 0 26.325 26.325 0 0 1 13.062 23.082v18.451h-52.662v-18.451z m0 0M474.641 431.153l-74.474 75.852a25.997 25.997 0 0 1-18.779 7.843l-0.557-0.005c-0.122 0-0.238 0.02-0.366 0.02a26.198 26.198 0 0 1-21.944-12.017l-70.386-71.728c-10.269-10.553-10.264-27.368 0.01-37.912a25.982 25.982 0 0 1 37.233 0l28.759 29.321v-221.591a26.325 26.325 0 0 1 13.024-23.207 26.334 26.334 0 0 1 39.637 23.207V424.402l30.604-31.181a25.996 25.996 0 0 1 18.616-7.858 26 26 0 0 1 18.622 7.858c10.292 10.55 10.292 27.379 0.001 37.932m28.056-286.911l74.472-75.844a25.98 25.98 0 0 1 18.782-7.854l0.557 0.01c0.122 0 0.234-0.02 0.361-0.02a26.184 26.184 0 0 1 21.945 12.015l70.385 71.731c10.271 10.551 10.271 27.356-0.005 37.907a26.002 26.002 0 0 1-18.621 7.858 25.995 25.995 0 0 1-18.616-7.858l-28.76-29.318V374.463a26.332 26.332 0 0 1-39.638 23.205 26.348 26.348 0 0 1-13.022-23.205v-223.465l-30.604 31.173a25.984 25.984 0 0 1-18.621 7.858 26.006 26.006 0 0 1-18.618-7.858c-10.281-10.55-10.281-27.373 0.003-37.929M764.275 571.26c98.217-22.688 168.616-108.985 171.11-209.756 2.495-100.768-63.541-190.449-160.509-217.967a26.206 26.206 0 0 0-33.064 25.412 26.568 26.568 0 0 0 19.485 25.411c71.967 20.871 121.52 86.748 121.603 161.683a166.38 166.38 0 0 1-37.18 105.49 168.9 168.9 0 0 1-93.204 58.471 52.006 52.006 0 0 0-36.081 29.492c-45.31 102.814-152.054 164.378-263.744 152.107-111.679-12.271-202.511-95.542-224.417-205.741a52.651 52.651 0 0 0-29.262-37.477c-56.323-26.363-88.938-86.304-80.484-147.915 8.449-61.608 56.001-110.551 117.341-120.779a26.295 26.295 0 0 0 20.535-16.428 26.303 26.303 0 0 0-3.954-26.004 26.302 26.302 0 0 0-24.498-9.581c-84.228 13.74-149.678 80.745-161.441 165.271-11.759 84.523 32.918 166.848 110.196 203.056 26.294 132.624 135.502 232.914 269.883 247.841 134.382 14.921 262.935-58.959 317.686-182.581M688.73 30.533c0 10.761-9.225 19.976-19.978 19.976H306.117c-10.752 0-19.979-9.215-19.979-19.976 0-10.756 9.227-19.976 19.979-19.976h362.636c10.753 0.001 19.977 9.22 19.977 19.976z m0 0"  horiz-adv-x="1024" />

    
    <glyph glyph-name="bianjisekuai" unicode="&#60540;" d="M775.84 503.232l-155.2 172.352L160.768 252.736l-38.368-187.936 190.56 12.832zM929.952 666.048l-131.2 150.944-0.288 0.32a16 16 0 0 1-22.592 0.96l-131.168-120.576 155.168-172.352 128.832 118.464a15.936 15.936 0 0 1 1.248 22.24zM96 0h832v-64H96z"  horiz-adv-x="1024" />

    
    <glyph glyph-name="bangongshi" unicode="&#58914;" d="M276.66057-125.261a23.953 23.953 0 0 0-6.844 1.026l-3.593 1.369L13.34757 2.033A24.124 24.124 0 0 0 0.00057 23.42V314.28a24.124 24.124 0 0 0 3.592 12.832 23.953 23.953 0 0 0 8.384 7.87l251.166 131.571a24.124 24.124 0 0 0 22.413 0l249.456-131.571h1.026a24.124 24.124 0 0 0 11.977-20.873v-292.571a24.124 24.124 0 0 0-13.345-21.558l-247.403-122.675-3.08-1.198a24.124 24.124 0 0 0-7.528-1.197z m22.756 317.55l1.026-254.417 200.352 99.064v240.9zM48.25057 38.306L252.36557-62.13l-1.027 254.418-203.087 85.548z m32.165 278.37L275.12057 234.38l193.68 82.296L275.29057 419.33z m0 0M777.96757-127.999a24.124 24.124 0 0 0-6.673 1.027l-3.764 1.54-252.706 124.898a24.124 24.124 0 0 0-13.346 21.558v290.86a24.124 24.124 0 0 0 11.806 20.874L764.45057 464.33a24.124 24.124 0 0 0 22.414 0l250.482-131.23h1.026a24.124 24.124 0 0 0 7.357-6.671l1.197-1.711a24.124 24.124 0 0 0 2.91-11.635v-294.11a24.124 24.124 0 0 0-13.346-21.56l-247.744-122.845-3.08-1.368a23.953 23.953 0 0 0-7.528-1.198z m22.755 317.55l1.027-254.759 200.35 99.064V275.27zM549.55657 35.568l203.26-100.432V189.551l-203.09 85.547zM581.72057 314.28l194.706-82.296 193.679 82.296-193.508 102.656z m0 0M271.01457 471.173l228.07-116.002 1.025 316.865-229.095 91.707z m276.489 200.864v-321.485l227.384 117.712v295.48l-229.095-91.707zM523.89257 896L304.37757 798.647l219.686-86.745 214.894 86.574z m0 0"  horiz-adv-x="1049" />

    
    <glyph glyph-name="bm-bumen" unicode="&#58937;" d="M566.784 451.072H675.84s100.864-37.376 100.864-100.864c0-63.488-33.792-317.952-119.296-329.728h-289.28C283.136 20.480000000000018 256 278.528 256 350.20799999999997c0 55.808 102.912 100.864 102.912 100.864h108.032s8.192-42.496 24.576-58.88c-19.456-22.016-42.496-188.416-27.136-237.568 15.36-49.152 47.104-81.408 47.104-81.408s46.08 37.376 52.736 81.408c6.144 44.032 0.512 207.872-19.968 239.616 20.48 16.384 22.528 56.832 22.528 56.832zM372.736 640c0 79.36 64.512 143.36 143.36 143.36 79.36 0 143.36-64.512 143.36-143.36s-64.512-143.36-143.36-143.36c-78.848-0.512-143.36 64-143.36 143.36z m332.8-6.144c0-47.616 38.4-86.016 86.016-86.016s86.016 38.4 86.016 86.016-38.4 86.016-86.016 86.016-86.016-38.4-86.016-86.016zM885.76 516.608H705.024c-14.336 0-38.4-3.072-38.4-11.776-0.512-9.216 93.184-25.6 129.024-84.992s29.696-121.344 16.896-167.424l36.352-0.512c50.176 0 80.896 18.432 90.624 61.952l15.872 133.632c0 37.888-31.232 69.12-69.632 69.12zM146.432 633.856c0-47.616 38.4-86.016 86.016-86.016s86.016 38.4 86.016 86.016-38.4 86.016-86.016 86.016-86.016-38.4-86.016-86.016z m-8.192-117.248h180.736c14.336 0 38.4-3.072 38.4-11.776 0.512-9.216-93.184-25.6-129.024-84.992s-29.696-121.344-16.896-167.424l-36.352-0.512c-50.176 0-80.896 18.432-90.624 61.952L68.608 447.488c0 37.888 31.232 69.12 69.632 69.12z"  horiz-adv-x="1024" />

    
    <glyph glyph-name="zichan1" unicode="&#58915;" d="M118.4 558.4h59.2c16.3 0 29.5 11.6 29.5 25.8v34.6c0 14.3-13.2 25.9-29.5 25.9h-59.2c-16.3 0-29.5-11.6-29.5-25.8v-34.6c0-14.3 13.2-25.9 29.5-25.9zM118.4 333.9c-16.3 0.1-29.5 11.6-29.5 25.9v34.6c0 14.3 13.2 25.8 29.5 25.8h59.2c16.3 0 29.5-11.5 29.5-25.8v-34.6c0-14.3-13.2-25.9-29.5-25.9h-59.2zM846.2 800.2c39.2 0 71.6-25.7 71.6-57.2v-714.5c0-31.5-32.2-57.2-71.6-57.2H235c-39.3 0-71.6 25.7-71.6 57.2v63.7h24.2c21.8 0 39.5 15.5 39.5 34.6v51.8c0 19-17.7 34.5-39.5 34.5h-24.2V316.6h24.2c21.8 0 39.5 15.5 39.5 34.6V403c0 19.1-17.7 34.6-39.5 34.6h-24.2V541.2h24.2c21.8 0 39.5 15.4 39.5 34.5v51.8c0 19.1-17.7 34.5-39.5 34.5h-24.2v81c0 31.5 32.2 57.2 71.6 57.2h611.2zM580.7 339.9v28.6h79.1c20.9 0 31.4 10.3 31.4 30.8 0 20.9-10.5 31.4-31.4 31.4h-43.2l67.3 111.5c6 10.5 8.6 19 7.9 25.5-0.7 6.5-5.8 12.8-15.1 18.8-4.1 2.6-8 4.8-11.8 6.4-3.7 1.7-7.5 2.2-11.2 1.7-3.7-0.6-7.4-2.4-10.9-5.6-3.6-3.2-7.4-8.1-11.5-14.9-13.8-23.5-27.6-46.9-41.5-70.3-13.9-23.4-27.7-46.9-41.5-70.3L463 575.8c-6.7 11.2-13.7 17.4-21 18.5-7.3 1.1-15.2-1.3-23.8-7.3-7.5-5.2-12.1-11.6-13.7-19.1a616445263867558800 616445263867558800 0 0 1 74.8-137.4H435c-20.2 0-30.3-10.5-30.3-31.4 0-20.5 10.5-30.8 31.4-30.8h78v-28.6H435c-20.2 0-30.3-10.5-30.3-31.4 0-20.5 10.5-30.8 31.4-30.8h78v-65c0-14.6 2.6-24.3 7.9-29.1 5.2-4.9 13.8-7.3 25.8-7.3 13.8 0 22.8 2.4 26.9 7.3 4.1 4.9 6.2 14.6 6.2 29.1v65H660c20.9 0 31.4 10.3 31.4 30.8 0 20.9-10.5 31.4-31.4 31.4h-79.3zM177.6 109.4h-59.2c-16.3 0-29.5 11.5-29.5 25.8v34.6c0 14.3 13.2 25.8 29.5 25.8h59.2c16.3 0 29.5-11.5 29.5-25.8v-34.6c0-14.2-13.2-25.8-29.5-25.8z"  horiz-adv-x="1024" />

    
    <glyph glyph-name="wuxupailie" unicode="&#60544;" d="M288 736h640v-96H288zM288 432h640v-96H288zM288 128h640v-96H288zM160 688m-64 0a64 64 0 1 1 128 0 64 64 0 1 1-128 0ZM160 384m-64 0a64 64 0 1 1 128 0 64 64 0 1 1-128 0ZM160 80m-64 0a64 64 0 1 1 128 0 64 64 0 1 1-128 0Z"  horiz-adv-x="1024" />

    
    <glyph glyph-name="dianzan_kuai" unicode="&#60556;" d="M64 412.96V24c0-37.216 30.144-67.36 67.36-67.36H192V479.68l-60.64 0.64A67.36 67.36 0 0 1 64 412.96zM857.28 551.008l-267.808-1.696c12.576 44.256 18.944 83.584 18.944 118.208 0 78.56-68.832 155.488-137.568 145.504-60.608-8.8-67.264-61.184-67.264-126.816v-59.264c0-76.064-63.84-140.864-137.856-148L256 479.04v-522.4h527.552a102.72 102.72 0 0 1 100.928 83.584l73.728 388.96a102.72 102.72 0 0 1-100.928 121.824z"  horiz-adv-x="1024" />

    
    <glyph glyph-name="caret-down" unicode="&#59628;" d="M840.4 596H183.6c-19.7 0-30.7-20.8-18.5-35l328.4-380.8c9.4-10.9 27.5-10.9 37 0L858.9 561c12.2 14.2 1.2 35-18.5 35z"  horiz-adv-x="1024" />

    
    <glyph glyph-name="caret-up" unicode="&#59629;" d="M858.9 207L530.5 587.8c-9.4 10.9-27.5 10.9-37 0L165.1 207c-12.2-14.2-1.2-35 18.5-35h656.8c19.7 0 30.7 20.8 18.5 35z"  horiz-adv-x="1024" />

    
    <glyph glyph-name="caret-right" unicode="&#59630;" d="M715.8 402.5L335 730.9c-14.2 12.2-35 1.2-35-18.5v-656.8c0-19.7 20.8-30.7 35-18.5l380.8 328.4c10.9 9.4 10.9 27.6 0 37z"  horiz-adv-x="1024" />

    
    <glyph glyph-name="caret-left" unicode="&#59631;" d="M689 730.9L308.2 402.5c-10.9-9.4-10.9-27.5 0-37L689 37.1c14.2-12.2 35-1.2 35 18.5V712.4c0 19.7-20.8 30.7-35 18.5z"  horiz-adv-x="1024" />

    
    </font>
</defs>
</svg>
